<svg width="1280" height="822" viewBox="0 0 1280 822" fill="none" xmlns="http://www.w3.org/2000/svg">
<g filter="url(#filter0_d_368_295)">
<rect x="429.467" y="401" width="421.867" height="96" rx="15" fill="#547EBC" fill-opacity="0.01" shape-rendering="crispEdges"/>
</g>
<path d="M510.549 464.595H512.902V466.948H510.549V464.595ZM508.196 464.595H510.549V466.948H508.196V464.595ZM505.843 464.595H508.196V466.948H505.843V464.595ZM505.843 466.948H508.196V469.301H505.843V466.948ZM508.196 466.948H510.549V469.301H508.196V466.948ZM505.843 469.301H508.196V471.654H505.843V469.301ZM503.49 469.301H505.843V471.654H503.49V469.301ZM508.196 469.301H510.549V471.654H508.196V469.301ZM503.49 471.654H505.843V474.007H503.49V471.654ZM501.137 471.654H503.49V474.007H501.137V471.654ZM498.784 471.654H501.137V474.007H498.784V471.654ZM496.432 471.654H498.784V474.007H496.432V471.654ZM494.079 471.654H496.432V474.007H494.079V471.654ZM491.726 471.654H494.079V474.007H491.726V471.654ZM489.373 471.654H491.726V474.007H489.373V471.654ZM489.373 469.301H491.726V471.654H489.373V469.301ZM487.02 469.301H489.373V471.654H487.02V469.301ZM484.667 469.301H487.02V471.654H484.667V469.301ZM484.667 466.948H487.02V469.301H484.667V466.948ZM487.02 466.948H489.373V469.301H487.02V466.948ZM489.373 466.948H491.726V469.301H489.373V466.948ZM491.726 466.948H494.079V469.301H491.726V466.948ZM494.079 466.948H496.432V469.301H494.079V466.948ZM496.432 466.948H498.784V469.301H496.432V466.948ZM498.784 466.948H501.137V469.301H498.784V466.948ZM501.137 466.948H503.49V469.301H501.137V466.948ZM503.49 466.948H505.843V469.301H503.49V466.948ZM501.137 469.301H503.49V471.654H501.137V469.301ZM498.784 469.301H501.137V471.654H498.784V469.301ZM496.432 469.301H498.784V471.654H496.432V469.301ZM494.079 469.301H496.432V471.654H494.079V469.301ZM491.726 469.301H494.079V471.654H491.726V469.301ZM487.02 464.595H489.373V466.948H487.02V464.595ZM484.667 464.595H487.02V466.948H484.667V464.595ZM482.314 464.595H484.667V466.948H482.314V464.595ZM487.02 462.242H489.373V464.595H487.02V462.242ZM489.373 462.242H491.726V464.595H489.373V462.242ZM491.726 462.242H494.079V464.595H491.726V462.242ZM491.726 464.595H494.079V466.948H491.726V464.595ZM489.373 464.595H491.726V466.948H489.373V464.595ZM484.667 462.242H487.02V464.595H484.667V462.242ZM484.667 459.889H487.02V462.242H484.667V459.889ZM482.314 459.889H484.667V462.242H482.314V459.889ZM482.314 457.536H484.667V459.889H482.314V457.536ZM482.314 462.242H484.667V464.595H482.314V462.242ZM482.314 455.184H484.667V457.536H482.314V455.184ZM484.667 455.184H487.02V457.536H484.667V455.184ZM487.02 455.184H489.373V457.536H487.02V455.184ZM489.373 455.184H491.726V457.536H489.373V455.184ZM489.373 457.536H491.726V459.889H489.373V457.536ZM489.373 459.889H491.726V462.242H489.373V459.889ZM487.02 457.536H489.373V459.889H487.02V457.536ZM484.667 457.536H487.02V459.889H484.667V457.536ZM487.02 459.889H489.373V462.242H487.02V459.889ZM494.079 464.595H496.432V466.948H494.079V464.595ZM496.432 464.595H498.784V466.948H496.432V464.595ZM498.784 464.595H501.137V466.948H498.784V464.595ZM501.137 464.595H503.49V466.948H501.137V464.595ZM503.49 464.595H505.843V466.948H503.49V464.595ZM503.49 462.242H505.843V464.595H503.49V462.242ZM501.137 462.242H503.49V464.595H501.137V462.242ZM505.843 462.242H508.196V464.595H505.843V462.242ZM508.196 462.242H510.549V464.595H508.196V462.242ZM508.196 459.889H510.549V462.242H508.196V459.889ZM510.549 459.889H512.902V462.242H510.549V459.889ZM510.549 457.536H512.902V459.889H510.549V457.536ZM510.549 462.242H512.902V464.595H510.549V462.242ZM503.49 457.536H505.843V459.889H503.49V457.536ZM503.49 459.889H505.843V462.242H503.49V459.889ZM505.843 459.889H508.196V462.242H505.843V459.889ZM505.843 457.536H508.196V459.889H505.843V457.536ZM508.196 457.536H510.549V459.889H508.196V457.536ZM510.549 441.066H512.902V443.419H510.549V441.066ZM510.549 438.713H512.902V441.066H510.549V438.713ZM510.549 436.36H512.902V438.713H510.549V436.36ZM510.549 434.007H512.902V436.36H510.549V434.007ZM508.196 434.007H510.549V436.36H508.196V434.007ZM508.196 431.654H510.549V434.007H508.196V431.654ZM508.196 429.301H510.549V431.654H508.196V429.301ZM505.843 429.301H508.196V431.654H505.843V429.301ZM503.49 429.301H505.843V431.654H503.49V429.301ZM505.843 441.066H508.196V443.419H505.843V441.066ZM505.843 438.713H508.196V441.066H505.843V438.713ZM508.196 438.713H510.549V441.066H508.196V438.713ZM508.196 436.36H510.549V438.713H508.196V436.36ZM508.196 441.066H510.549V443.419H508.196V441.066ZM503.49 441.066H505.843V443.419H503.49V441.066ZM505.843 436.36H508.196V438.713H505.843V436.36ZM503.49 436.36H505.843V438.713H503.49V436.36ZM503.49 438.713H505.843V441.066H503.49V438.713ZM501.137 436.36H503.49V438.713H501.137V436.36ZM501.137 434.007H503.49V436.36H501.137V434.007ZM503.49 431.654H505.843V434.007H503.49V431.654ZM505.843 431.654H508.196V434.007H505.843V431.654ZM505.843 434.007H508.196V436.36H505.843V434.007ZM503.49 434.007H505.843V436.36H503.49V434.007ZM501.137 431.654H503.49V434.007H501.137V431.654ZM501.137 429.301H503.49V431.654H501.137V429.301ZM501.137 426.948H503.49V429.301H501.137V426.948ZM503.49 426.948H505.843V429.301H503.49V426.948ZM498.784 426.948H501.137V429.301H498.784V426.948ZM496.432 426.948H498.784V429.301H496.432V426.948ZM494.079 426.948H496.432V429.301H494.079V426.948ZM491.726 426.948H494.079V429.301H491.726V426.948ZM491.726 429.301H494.079V431.654H491.726V429.301ZM489.373 429.301H491.726V431.654H489.373V429.301ZM489.373 426.948H491.726V429.301H489.373V426.948ZM487.02 429.301H489.373V431.654H487.02V429.301ZM484.667 429.301H487.02V431.654H484.667V429.301ZM484.667 431.654H487.02V434.007H484.667V431.654ZM484.667 434.007H487.02V436.36H484.667V434.007ZM482.314 434.007H484.667V436.36H482.314V434.007ZM482.314 436.36H484.667V438.713H482.314V436.36ZM484.667 436.36H487.02V438.713H484.667V436.36ZM487.02 436.36H489.373V438.713H487.02V436.36ZM489.373 436.36H491.726V438.713H489.373V436.36ZM491.726 436.36H494.079V438.713H491.726V436.36ZM491.726 434.007H494.079V436.36H491.726V434.007ZM494.079 434.007H496.432V436.36H494.079V434.007ZM496.432 434.007H498.784V436.36H496.432V434.007ZM498.784 434.007H501.137V436.36H498.784V434.007ZM498.784 429.301H501.137V431.654H498.784V429.301ZM498.784 431.654H501.137V434.007H498.784V431.654ZM496.432 431.654H498.784V434.007H496.432V431.654ZM494.079 431.654H496.432V434.007H494.079V431.654ZM496.432 429.301H498.784V431.654H496.432V429.301ZM494.079 429.301H496.432V431.654H494.079V429.301ZM491.726 431.654H494.079V434.007H491.726V431.654ZM489.373 431.654H491.726V434.007H489.373V431.654ZM489.373 434.007H491.726V436.36H489.373V434.007ZM487.02 434.007H489.373V436.36H487.02V434.007ZM487.02 431.654H489.373V434.007H487.02V431.654ZM487.02 438.713H489.373V441.066H487.02V438.713ZM487.02 441.066H489.373V443.419H487.02V441.066ZM487.02 443.419H489.373V445.772H487.02V443.419ZM487.02 445.772H489.373V448.125H487.02V445.772ZM489.373 445.772H491.726V448.125H489.373V445.772ZM489.373 448.125H491.726V450.478H489.373V448.125ZM489.373 443.419H491.726V445.772H489.373V443.419ZM489.373 441.066H491.726V443.419H489.373V441.066ZM489.373 438.713H491.726V441.066H489.373V438.713ZM489.373 450.478H491.726V452.831H489.373V450.478ZM489.373 452.831H491.726V455.184H489.373V452.831ZM487.02 452.831H489.373V455.184H487.02V452.831ZM484.667 452.831H487.02V455.184H484.667V452.831ZM482.314 450.478H484.667V452.831H482.314V450.478ZM482.314 452.831H484.667V455.184H482.314V452.831ZM482.314 448.125H484.667V450.478H482.314V448.125ZM482.314 445.772H484.667V448.125H482.314V445.772ZM482.314 443.419H484.667V445.772H482.314V443.419ZM482.314 441.066H484.667V443.419H482.314V441.066ZM482.314 438.713H484.667V441.066H482.314V438.713ZM484.667 441.066H487.02V443.419H484.667V441.066ZM484.667 443.419H487.02V445.772H484.667V443.419ZM484.667 445.772H487.02V448.125H484.667V445.772ZM484.667 448.125H487.02V450.478H484.667V448.125ZM484.667 450.478H487.02V452.831H484.667V450.478ZM487.02 450.478H489.373V452.831H487.02V450.478ZM487.02 448.125H489.373V450.478H487.02V448.125ZM484.667 438.713H487.02V441.066H484.667V438.713ZM548.205 464.595H550.558V466.948H548.205V464.595ZM545.852 464.595H548.205V466.948H545.852V464.595ZM543.5 464.595H545.852V466.948H543.5V464.595ZM543.5 466.948H545.852V469.301H543.5V466.948ZM545.852 466.948H548.205V469.301H545.852V466.948ZM543.5 469.301H545.852V471.654H543.5V469.301ZM541.147 469.301H543.5V471.654H541.147V469.301ZM545.852 469.301H548.205V471.654H545.852V469.301ZM541.147 471.654H543.5V474.007H541.147V471.654ZM538.794 471.654H541.147V474.007H538.794V471.654ZM536.441 471.654H538.794V474.007H536.441V471.654ZM534.088 471.654H536.441V474.007H534.088V471.654ZM531.735 471.654H534.088V474.007H531.735V471.654ZM529.382 471.654H531.735V474.007H529.382V471.654ZM527.029 471.654H529.382V474.007H527.029V471.654ZM527.029 469.301H529.382V471.654H527.029V469.301ZM524.676 469.301H527.029V471.654H524.676V469.301ZM522.323 469.301H524.676V471.654H522.323V469.301ZM522.323 466.948H524.676V469.301H522.323V466.948ZM524.676 466.948H527.029V469.301H524.676V466.948ZM527.029 466.948H529.382V469.301H527.029V466.948ZM529.382 466.948H531.735V469.301H529.382V466.948ZM531.735 466.948H534.088V469.301H531.735V466.948ZM534.088 466.948H536.441V469.301H534.088V466.948ZM536.441 466.948H538.794V469.301H536.441V466.948ZM538.794 466.948H541.147V469.301H538.794V466.948ZM541.147 466.948H543.5V469.301H541.147V466.948ZM538.794 469.301H541.147V471.654H538.794V469.301ZM536.441 469.301H538.794V471.654H536.441V469.301ZM534.088 469.301H536.441V471.654H534.088V469.301ZM531.735 469.301H534.088V471.654H531.735V469.301ZM529.382 469.301H531.735V471.654H529.382V469.301ZM524.676 464.595H527.029V466.948H524.676V464.595ZM522.323 464.595H524.676V466.948H522.323V464.595ZM519.97 464.595H522.323V466.948H519.97V464.595ZM524.676 462.242H527.029V464.595H524.676V462.242ZM527.029 462.242H529.382V464.595H527.029V462.242ZM529.382 462.242H531.735V464.595H529.382V462.242ZM529.382 464.595H531.735V466.948H529.382V464.595ZM527.029 464.595H529.382V466.948H527.029V464.595ZM522.323 462.242H524.676V464.595H522.323V462.242ZM522.323 459.889H524.676V462.242H522.323V459.889ZM519.97 459.889H522.323V462.242H519.97V459.889ZM519.97 457.536H522.323V459.889H519.97V457.536ZM519.97 462.242H522.323V464.595H519.97V462.242ZM519.97 455.184H522.323V457.536H519.97V455.184ZM522.323 455.184H524.676V457.536H522.323V455.184ZM524.676 455.184H527.029V457.536H524.676V455.184ZM527.029 455.184H529.382V457.536H527.029V455.184ZM527.029 457.536H529.382V459.889H527.029V457.536ZM527.029 459.889H529.382V462.242H527.029V459.889ZM524.676 457.536H527.029V459.889H524.676V457.536ZM522.323 457.536H524.676V459.889H522.323V457.536ZM524.676 459.889H527.029V462.242H524.676V459.889ZM531.735 464.595H534.088V466.948H531.735V464.595ZM534.088 464.595H536.441V466.948H534.088V464.595ZM536.441 464.595H538.794V466.948H536.441V464.595ZM538.794 464.595H541.147V466.948H538.794V464.595ZM541.147 464.595H543.5V466.948H541.147V464.595ZM541.147 462.242H543.5V464.595H541.147V462.242ZM538.794 462.242H541.147V464.595H538.794V462.242ZM543.5 462.242H545.852V464.595H543.5V462.242ZM545.852 462.242H548.205V464.595H545.852V462.242ZM545.852 459.889H548.205V462.242H545.852V459.889ZM548.205 459.889H550.558V462.242H548.205V459.889ZM548.205 457.536H550.558V459.889H548.205V457.536ZM548.205 462.242H550.558V464.595H548.205V462.242ZM548.205 455.184H550.558V457.536H548.205V455.184ZM548.205 452.831H550.558V455.184H548.205V452.831ZM548.205 450.478H550.558V452.831H548.205V450.478ZM548.205 448.125H550.558V450.478H548.205V448.125ZM548.205 445.772H550.558V448.125H548.205V445.772ZM545.852 445.772H548.205V448.125H545.852V445.772ZM545.852 443.419H548.205V445.772H545.852V443.419ZM543.5 445.772H545.852V448.125H543.5V445.772ZM541.147 445.772H543.5V448.125H541.147V445.772ZM541.147 448.125H543.5V450.478H541.147V448.125ZM541.147 450.478H543.5V452.831H541.147V450.478ZM541.147 452.831H543.5V455.184H541.147V452.831ZM541.147 455.184H543.5V457.536H541.147V455.184ZM541.147 457.536H543.5V459.889H541.147V457.536ZM541.147 459.889H543.5V462.242H541.147V459.889ZM543.5 459.889H545.852V462.242H543.5V459.889ZM543.5 457.536H545.852V459.889H543.5V457.536ZM545.852 457.536H548.205V459.889H545.852V457.536ZM545.852 455.184H548.205V457.536H545.852V455.184ZM545.852 452.831H548.205V455.184H545.852V452.831ZM545.852 450.478H548.205V452.831H545.852V450.478ZM543.5 448.125H545.852V450.478H543.5V448.125ZM543.5 450.478H545.852V452.831H543.5V450.478ZM543.5 452.831H545.852V455.184H543.5V452.831ZM543.5 455.184H545.852V457.536H543.5V455.184ZM545.852 448.125H548.205V450.478H545.852V448.125ZM548.205 443.419H550.558V445.772H548.205V443.419ZM548.205 441.066H550.558V443.419H548.205V441.066ZM548.205 438.713H550.558V441.066H548.205V438.713ZM548.205 436.36H550.558V438.713H548.205V436.36ZM548.205 434.007H550.558V436.36H548.205V434.007ZM545.852 434.007H548.205V436.36H545.852V434.007ZM545.852 431.654H548.205V434.007H545.852V431.654ZM545.852 429.301H548.205V431.654H545.852V429.301ZM543.5 429.301H545.852V431.654H543.5V429.301ZM541.147 429.301H543.5V431.654H541.147V429.301ZM543.5 443.419H545.852V445.772H543.5V443.419ZM543.5 441.066H545.852V443.419H543.5V441.066ZM543.5 438.713H545.852V441.066H543.5V438.713ZM545.852 438.713H548.205V441.066H545.852V438.713ZM545.852 436.36H548.205V438.713H545.852V436.36ZM545.852 441.066H548.205V443.419H545.852V441.066ZM541.147 443.419H543.5V445.772H541.147V443.419ZM541.147 441.066H543.5V443.419H541.147V441.066ZM543.5 436.36H545.852V438.713H543.5V436.36ZM541.147 436.36H543.5V438.713H541.147V436.36ZM541.147 438.713H543.5V441.066H541.147V438.713ZM538.794 436.36H541.147V438.713H538.794V436.36ZM538.794 434.007H541.147V436.36H538.794V434.007ZM541.147 431.654H543.5V434.007H541.147V431.654ZM543.5 431.654H545.852V434.007H543.5V431.654ZM543.5 434.007H545.852V436.36H543.5V434.007ZM541.147 434.007H543.5V436.36H541.147V434.007ZM538.794 431.654H541.147V434.007H538.794V431.654ZM538.794 429.301H541.147V431.654H538.794V429.301ZM538.794 426.948H541.147V429.301H538.794V426.948ZM541.147 426.948H543.5V429.301H541.147V426.948ZM536.441 426.948H538.794V429.301H536.441V426.948ZM534.088 426.948H536.441V429.301H534.088V426.948ZM531.735 426.948H534.088V429.301H531.735V426.948ZM529.382 426.948H531.735V429.301H529.382V426.948ZM529.382 429.301H531.735V431.654H529.382V429.301ZM527.029 429.301H529.382V431.654H527.029V429.301ZM527.029 426.948H529.382V429.301H527.029V426.948ZM524.676 429.301H527.029V431.654H524.676V429.301ZM522.323 429.301H524.676V431.654H522.323V429.301ZM522.323 431.654H524.676V434.007H522.323V431.654ZM522.323 434.007H524.676V436.36H522.323V434.007ZM519.97 434.007H522.323V436.36H519.97V434.007ZM519.97 436.36H522.323V438.713H519.97V436.36ZM522.323 436.36H524.676V438.713H522.323V436.36ZM524.676 436.36H527.029V438.713H524.676V436.36ZM527.029 436.36H529.382V438.713H527.029V436.36ZM529.382 436.36H531.735V438.713H529.382V436.36ZM529.382 434.007H531.735V436.36H529.382V434.007ZM531.735 434.007H534.088V436.36H531.735V434.007ZM534.088 434.007H536.441V436.36H534.088V434.007ZM536.441 434.007H538.794V436.36H536.441V434.007ZM536.441 429.301H538.794V431.654H536.441V429.301ZM536.441 431.654H538.794V434.007H536.441V431.654ZM534.088 431.654H536.441V434.007H534.088V431.654ZM531.735 431.654H534.088V434.007H531.735V431.654ZM534.088 429.301H536.441V431.654H534.088V429.301ZM531.735 429.301H534.088V431.654H531.735V429.301ZM529.382 431.654H531.735V434.007H529.382V431.654ZM527.029 431.654H529.382V434.007H527.029V431.654ZM527.029 434.007H529.382V436.36H527.029V434.007ZM524.676 434.007H527.029V436.36H524.676V434.007ZM524.676 431.654H527.029V434.007H524.676V431.654ZM524.676 438.713H527.029V441.066H524.676V438.713ZM524.676 441.066H527.029V443.419H524.676V441.066ZM524.676 443.419H527.029V445.772H524.676V443.419ZM524.676 445.772H527.029V448.125H524.676V445.772ZM527.029 445.772H529.382V448.125H527.029V445.772ZM527.029 448.125H529.382V450.478H527.029V448.125ZM527.029 443.419H529.382V445.772H527.029V443.419ZM527.029 441.066H529.382V443.419H527.029V441.066ZM527.029 438.713H529.382V441.066H527.029V438.713ZM527.029 450.478H529.382V452.831H527.029V450.478ZM527.029 452.831H529.382V455.184H527.029V452.831ZM524.676 452.831H527.029V455.184H524.676V452.831ZM522.323 452.831H524.676V455.184H522.323V452.831ZM519.97 450.478H522.323V452.831H519.97V450.478ZM519.97 452.831H522.323V455.184H519.97V452.831ZM519.97 448.125H522.323V450.478H519.97V448.125ZM519.97 445.772H522.323V448.125H519.97V445.772ZM519.97 443.419H522.323V445.772H519.97V443.419ZM519.97 441.066H522.323V443.419H519.97V441.066ZM519.97 438.713H522.323V441.066H519.97V438.713ZM522.323 441.066H524.676V443.419H522.323V441.066ZM522.323 443.419H524.676V445.772H522.323V443.419ZM522.323 445.772H524.676V448.125H522.323V445.772ZM522.323 448.125H524.676V450.478H522.323V448.125ZM522.323 450.478H524.676V452.831H522.323V450.478ZM524.676 450.478H527.029V452.831H524.676V450.478ZM524.676 448.125H527.029V450.478H524.676V448.125ZM522.323 438.713H524.676V441.066H522.323V438.713ZM559.979 426.948H562.332V429.301H559.979V426.948ZM562.332 426.948H564.685V429.301H562.332V426.948ZM564.685 426.948H567.038V429.301H564.685V426.948ZM567.038 429.301H569.391V431.654H567.038V429.301ZM567.038 431.654H569.391V434.007H567.038V431.654ZM567.038 434.007H569.391V436.36H567.038V434.007ZM567.038 436.36H569.391V438.713H567.038V436.36ZM567.038 438.713H569.391V441.066H567.038V438.713ZM567.038 441.066H569.391V443.419H567.038V441.066ZM564.685 450.478H567.038V452.831H564.685V450.478ZM564.685 448.125H567.038V450.478H564.685V448.125ZM564.685 445.772H567.038V448.125H564.685V445.772ZM562.332 443.419H564.685V445.772H562.332V443.419ZM562.332 441.066H564.685V443.419H562.332V441.066ZM562.332 438.713H564.685V441.066H562.332V438.713ZM562.332 436.36H564.685V438.713H562.332V436.36ZM562.332 434.007H564.685V436.36H562.332V434.007ZM564.685 431.654H567.038V434.007H564.685V431.654ZM564.685 429.301H567.038V431.654H564.685V429.301ZM564.685 434.007H567.038V436.36H564.685V434.007ZM564.685 436.36H567.038V438.713H564.685V436.36ZM564.685 438.713H567.038V441.066H564.685V438.713ZM564.685 441.066H567.038V443.419H564.685V441.066ZM564.685 443.419H567.038V445.772H564.685V443.419ZM559.979 431.654H562.332V434.007H559.979V431.654ZM559.979 429.301H562.332V431.654H559.979V429.301ZM562.332 429.301H564.685V431.654H562.332V429.301ZM562.332 431.654H564.685V434.007H562.332V431.654ZM559.979 436.36H562.332V438.713H559.979V436.36ZM559.979 438.713H562.332V441.066H559.979V438.713ZM559.979 441.066H562.332V443.419H559.979V441.066ZM559.979 443.419H562.332V445.772H559.979V443.419ZM559.979 445.772H562.332V448.125H559.979V445.772ZM559.979 448.125H562.332V450.478H559.979V448.125ZM559.979 434.007H562.332V436.36H559.979V434.007ZM562.332 448.125H564.685V450.478H562.332V448.125ZM562.332 450.478H564.685V452.831H562.332V450.478ZM562.332 445.772H564.685V448.125H562.332V445.772ZM559.979 450.478H562.332V452.831H559.979V450.478ZM559.979 452.831H562.332V455.184H559.979V452.831ZM559.979 455.184H562.332V457.536H559.979V455.184ZM559.979 457.536H562.332V459.889H559.979V457.536ZM559.979 459.889H562.332V462.242H559.979V459.889ZM559.979 462.242H562.332V464.595H559.979V462.242ZM559.979 464.595H562.332V466.948H559.979V464.595ZM559.979 466.948H562.332V469.301H559.979V466.948ZM559.979 469.301H562.332V471.654H559.979V469.301ZM559.979 471.654H562.332V474.007H559.979V471.654ZM562.332 471.654H564.685V474.007H562.332V471.654ZM564.685 471.654H567.038V474.007H564.685V471.654ZM564.685 452.831H567.038V455.184H564.685V452.831ZM562.332 452.831H564.685V455.184H562.332V452.831ZM562.332 455.184H564.685V457.536H562.332V455.184ZM562.332 457.536H564.685V459.889H562.332V457.536ZM562.332 459.889H564.685V462.242H562.332V459.889ZM562.332 462.242H564.685V464.595H562.332V462.242ZM562.332 464.595H564.685V466.948H562.332V464.595ZM562.332 466.948H564.685V469.301H562.332V466.948ZM562.332 469.301H564.685V471.654H562.332V469.301ZM564.685 469.301H567.038V471.654H564.685V469.301ZM564.685 466.948H567.038V469.301H564.685V466.948ZM564.685 464.595H567.038V466.948H564.685V464.595ZM564.685 462.242H567.038V464.595H564.685V462.242ZM564.685 459.889H567.038V462.242H564.685V459.889ZM564.685 457.536H567.038V459.889H564.685V457.536ZM564.685 455.184H567.038V457.536H564.685V455.184ZM569.391 431.654H571.744V434.007H569.391V431.654ZM569.391 434.007H571.744V436.36H569.391V434.007ZM569.391 436.36H571.744V438.713H569.391V436.36ZM569.391 438.713H571.744V441.066H569.391V438.713ZM569.391 441.066H571.744V443.419H569.391V441.066ZM569.391 443.419H571.744V445.772H569.391V443.419ZM571.744 434.007H574.097V436.36H571.744V434.007ZM571.744 436.36H574.097V438.713H571.744V436.36ZM571.744 438.713H574.097V441.066H571.744V438.713ZM571.744 441.066H574.097V443.419H571.744V441.066ZM571.744 443.419H574.097V445.772H571.744V443.419ZM571.744 445.772H574.097V448.125H571.744V445.772ZM574.097 436.36H576.45V438.713H574.097V436.36ZM574.097 438.713H576.45V441.066H574.097V438.713ZM574.097 441.066H576.45V443.419H574.097V441.066ZM574.097 443.419H576.45V445.772H574.097V443.419ZM574.097 445.772H576.45V448.125H574.097V445.772ZM574.097 448.125H576.45V450.478H574.097V448.125ZM576.45 438.713H578.803V441.066H576.45V438.713ZM576.45 441.066H578.803V443.419H576.45V441.066ZM576.45 443.419H578.803V445.772H576.45V443.419ZM576.45 445.772H578.803V448.125H576.45V445.772ZM576.45 448.125H578.803V450.478H576.45V448.125ZM576.45 450.478H578.803V452.831H576.45V450.478ZM578.803 441.066H581.156V443.419H578.803V441.066ZM578.803 443.419H581.156V445.772H578.803V443.419ZM578.803 445.772H581.156V448.125H578.803V445.772ZM578.803 448.125H581.156V450.478H578.803V448.125ZM578.803 450.478H581.156V452.831H578.803V450.478ZM578.803 452.831H581.156V455.184H578.803V452.831ZM581.156 450.478H583.509V452.831H581.156V450.478ZM581.156 448.125H583.509V450.478H581.156V448.125ZM581.156 445.772H583.509V448.125H581.156V445.772ZM581.156 443.419H583.509V445.772H581.156V443.419ZM581.156 441.066H583.509V443.419H581.156V441.066ZM581.156 438.713H583.509V441.066H581.156V438.713ZM583.509 436.36H585.862V438.713H583.509V436.36ZM583.509 438.713H585.862V441.066H583.509V438.713ZM583.509 441.066H585.862V443.419H583.509V441.066ZM583.509 443.419H585.862V445.772H583.509V443.419ZM583.509 445.772H585.862V448.125H583.509V445.772ZM583.509 448.125H585.862V450.478H583.509V448.125ZM585.862 434.007H588.215V436.36H585.862V434.007ZM585.862 436.36H588.215V438.713H585.862V436.36ZM585.862 438.713H588.215V441.066H585.862V438.713ZM585.862 441.066H588.215V443.419H585.862V441.066ZM585.862 443.419H588.215V445.772H585.862V443.419ZM585.862 445.772H588.215V448.125H585.862V445.772ZM588.215 431.654H590.568V434.007H588.215V431.654ZM588.215 434.007H590.568V436.36H588.215V434.007ZM588.215 436.36H590.568V438.713H588.215V436.36ZM588.215 438.713H590.568V441.066H588.215V438.713ZM588.215 441.066H590.568V443.419H588.215V441.066ZM588.215 443.419H590.568V445.772H588.215V443.419ZM592.92 426.948H595.273V429.301H592.92V426.948ZM595.273 426.948H597.626V429.301H595.273V426.948ZM597.626 426.948H599.979V429.301H597.626V426.948ZM597.626 429.301H599.979V431.654H597.626V429.301ZM597.626 431.654H599.979V434.007H597.626V431.654ZM597.626 434.007H599.979V436.36H597.626V434.007ZM597.626 436.36H599.979V438.713H597.626V436.36ZM595.273 436.36H597.626V438.713H595.273V436.36ZM595.273 434.007H597.626V436.36H595.273V434.007ZM592.92 431.654H595.273V434.007H592.92V431.654ZM592.92 429.301H595.273V431.654H592.92V429.301ZM590.568 431.654H592.92V434.007H590.568V431.654ZM590.568 434.007H592.92V436.36H590.568V434.007ZM590.568 436.36H592.92V438.713H590.568V436.36ZM590.568 429.301H592.92V431.654H590.568V429.301ZM595.273 429.301H597.626V431.654H595.273V429.301ZM595.273 431.654H597.626V434.007H595.273V431.654ZM592.92 434.007H595.273V436.36H592.92V434.007ZM592.92 436.36H595.273V438.713H592.92V436.36ZM592.92 438.713H595.273V441.066H592.92V438.713ZM592.92 441.066H595.273V443.419H592.92V441.066ZM590.568 441.066H592.92V443.419H590.568V441.066ZM590.568 438.713H592.92V441.066H590.568V438.713ZM592.92 443.419H595.273V445.772H592.92V443.419ZM592.92 445.772H595.273V448.125H592.92V445.772ZM592.92 448.125H595.273V450.478H592.92V448.125ZM592.92 450.478H595.273V452.831H592.92V450.478ZM592.92 452.831H595.273V455.184H592.92V452.831ZM592.92 455.184H595.273V457.536H592.92V455.184ZM595.273 441.066H597.626V443.419H595.273V441.066ZM595.273 438.713H597.626V441.066H595.273V438.713ZM597.626 438.713H599.979V441.066H597.626V438.713ZM597.626 441.066H599.979V443.419H597.626V441.066ZM597.626 443.419H599.979V445.772H597.626V443.419ZM597.626 445.772H599.979V448.125H597.626V445.772ZM597.626 448.125H599.979V450.478H597.626V448.125ZM597.626 450.478H599.979V452.831H597.626V450.478ZM597.626 452.831H599.979V455.184H597.626V452.831ZM597.626 455.184H599.979V457.536H597.626V455.184ZM595.273 455.184H597.626V457.536H595.273V455.184ZM595.273 452.831H597.626V455.184H595.273V452.831ZM595.273 450.478H597.626V452.831H595.273V450.478ZM595.273 448.125H597.626V450.478H595.273V448.125ZM595.273 445.772H597.626V448.125H595.273V445.772ZM595.273 443.419H597.626V445.772H595.273V443.419ZM592.92 466.948H595.273V469.301H592.92V466.948ZM592.92 469.301H595.273V471.654H592.92V469.301ZM592.92 471.654H595.273V474.007H592.92V471.654ZM595.273 471.654H597.626V474.007H595.273V471.654ZM597.626 471.654H599.979V474.007H597.626V471.654ZM597.626 469.301H599.979V471.654H597.626V469.301ZM597.626 466.948H599.979V469.301H597.626V466.948ZM597.626 464.595H599.979V466.948H597.626V464.595ZM597.626 462.242H599.979V464.595H597.626V462.242ZM597.626 459.889H599.979V462.242H597.626V459.889ZM597.626 457.536H599.979V459.889H597.626V457.536ZM595.273 457.536H597.626V459.889H595.273V457.536ZM595.273 459.889H597.626V462.242H595.273V459.889ZM595.273 462.242H597.626V464.595H595.273V462.242ZM595.273 464.595H597.626V466.948H595.273V464.595ZM595.273 466.948H597.626V469.301H595.273V466.948ZM595.273 469.301H597.626V471.654H595.273V469.301ZM592.92 457.536H595.273V459.889H592.92V457.536ZM592.92 459.889H595.273V462.242H592.92V459.889ZM592.92 462.242H595.273V464.595H592.92V462.242ZM592.92 464.595H595.273V466.948H592.92V464.595ZM557.626 426.948H559.979V429.301H557.626V426.948ZM557.626 429.301H559.979V431.654H557.626V429.301ZM557.626 431.654H559.979V434.007H557.626V431.654ZM557.626 434.007H559.979V436.36H557.626V434.007ZM557.626 436.36H559.979V438.713H557.626V436.36ZM557.626 438.713H559.979V441.066H557.626V438.713ZM557.626 441.066H559.979V443.419H557.626V441.066ZM557.626 443.419H559.979V445.772H557.626V443.419ZM557.626 445.772H559.979V448.125H557.626V445.772ZM557.626 448.125H559.979V450.478H557.626V448.125ZM557.626 450.478H559.979V452.831H557.626V450.478ZM557.626 452.831H559.979V455.184H557.626V452.831ZM557.626 455.184H559.979V457.536H557.626V455.184ZM557.626 457.536H559.979V459.889H557.626V457.536ZM557.626 459.889H559.979V462.242H557.626V459.889ZM557.626 462.242H559.979V464.595H557.626V462.242ZM557.626 464.595H559.979V466.948H557.626V464.595ZM557.626 466.948H559.979V469.301H557.626V466.948ZM557.626 469.301H559.979V471.654H557.626V469.301ZM557.626 471.654H559.979V474.007H557.626V471.654ZM599.979 471.654H602.332V474.007H599.979V471.654ZM599.979 469.301H602.332V471.654H599.979V469.301ZM599.979 466.948H602.332V469.301H599.979V466.948ZM599.979 464.595H602.332V466.948H599.979V464.595ZM599.979 462.242H602.332V464.595H599.979V462.242ZM599.979 459.889H602.332V462.242H599.979V459.889ZM599.979 457.536H602.332V459.889H599.979V457.536ZM599.979 455.184H602.332V457.536H599.979V455.184ZM599.979 452.831H602.332V455.184H599.979V452.831ZM599.979 450.478H602.332V452.831H599.979V450.478ZM599.979 448.125H602.332V450.478H599.979V448.125ZM599.979 445.772H602.332V448.125H599.979V445.772ZM599.979 443.419H602.332V445.772H599.979V443.419ZM599.979 441.066H602.332V443.419H599.979V441.066ZM599.979 438.713H602.332V441.066H599.979V438.713ZM599.979 436.36H602.332V438.713H599.979V436.36ZM599.979 434.007H602.332V436.36H599.979V434.007ZM599.979 431.654H602.332V434.007H599.979V431.654ZM599.979 429.301H602.332V431.654H599.979V429.301ZM599.979 426.948H602.332V429.301H599.979V426.948ZM609.423 471.654H611.776V474.007H609.423V471.654ZM611.776 471.654H614.129V474.007H611.776V471.654ZM614.129 471.654H616.482V474.007H614.129V471.654ZM616.482 471.654H618.835V474.007H616.482V471.654ZM616.482 469.301H618.835V471.654H616.482V469.301ZM614.129 469.301H616.482V471.654H614.129V469.301ZM611.776 469.301H614.129V471.654H611.776V469.301ZM609.423 469.301H611.776V471.654H609.423V469.301ZM609.423 466.948H611.776V469.301H609.423V466.948ZM609.423 464.595H611.776V466.948H609.423V464.595ZM609.423 462.242H611.776V464.595H609.423V462.242ZM609.423 459.889H611.776V462.242H609.423V459.889ZM609.423 457.536H611.776V459.889H609.423V457.536ZM609.423 455.184H611.776V457.536H609.423V455.184ZM609.423 452.831H611.776V455.184H609.423V452.831ZM611.776 452.831H614.129V455.184H611.776V452.831ZM611.776 450.478H614.129V452.831H611.776V450.478ZM611.776 448.125H614.129V450.478H611.776V448.125ZM614.129 448.125H616.482V450.478H614.129V448.125ZM614.129 450.478H616.482V452.831H614.129V450.478ZM616.482 450.478H618.835V452.831H616.482V450.478ZM616.482 452.831H618.835V455.184H616.482V452.831ZM616.482 455.184H618.835V457.536H616.482V455.184ZM616.482 457.536H618.835V459.889H616.482V457.536ZM616.482 459.889H618.835V462.242H616.482V459.889ZM616.482 462.242H618.835V464.595H616.482V462.242ZM616.482 464.595H618.835V466.948H616.482V464.595ZM616.482 466.948H618.835V469.301H616.482V466.948ZM614.129 466.948H616.482V469.301H614.129V466.948ZM614.129 464.595H616.482V466.948H614.129V464.595ZM614.129 462.242H616.482V464.595H614.129V462.242ZM614.129 459.889H616.482V462.242H614.129V459.889ZM614.129 457.536H616.482V459.889H614.129V457.536ZM614.129 455.184H616.482V457.536H614.129V455.184ZM614.129 452.831H616.482V455.184H614.129V452.831ZM611.776 455.184H614.129V457.536H611.776V455.184ZM611.776 457.536H614.129V459.889H611.776V457.536ZM611.776 459.889H614.129V462.242H611.776V459.889ZM611.776 462.242H614.129V464.595H611.776V462.242ZM611.776 464.595H614.129V466.948H611.776V464.595ZM611.776 466.948H614.129V469.301H611.776V466.948ZM609.423 426.948H611.776V429.301H609.423V426.948ZM609.423 429.301H611.776V431.654H609.423V429.301ZM609.423 434.007H611.776V436.36H609.423V434.007ZM609.423 436.36H611.776V438.713H609.423V436.36ZM609.423 438.713H611.776V441.066H609.423V438.713ZM609.423 441.066H611.776V443.419H609.423V441.066ZM609.423 443.419H611.776V445.772H609.423V443.419ZM609.423 445.772H611.776V448.125H609.423V445.772ZM609.423 448.125H611.776V450.478H609.423V448.125ZM609.423 450.478H611.776V452.831H609.423V450.478ZM611.776 441.066H614.129V443.419H611.776V441.066ZM611.776 438.713H614.129V441.066H611.776V438.713ZM611.776 436.36H614.129V438.713H611.776V436.36ZM611.776 434.007H614.129V436.36H611.776V434.007ZM611.776 431.654H614.129V434.007H611.776V431.654ZM609.423 431.654H611.776V434.007H609.423V431.654ZM611.776 426.948H614.129V429.301H611.776V426.948ZM614.129 426.948H616.482V429.301H614.129V426.948ZM614.129 429.301H616.482V431.654H614.129V429.301ZM616.482 431.654H618.835V434.007H616.482V431.654ZM616.482 429.301H618.835V431.654H616.482V429.301ZM616.482 426.948H618.835V429.301H616.482V426.948ZM616.482 434.007H618.835V436.36H616.482V434.007ZM616.482 436.36H618.835V438.713H616.482V436.36ZM616.482 438.713H618.835V441.066H616.482V438.713ZM616.482 441.066H618.835V443.419H616.482V441.066ZM616.482 443.419H618.835V445.772H616.482V443.419ZM616.482 445.772H618.835V448.125H616.482V445.772ZM616.482 448.125H618.835V450.478H616.482V448.125ZM614.129 445.772H616.482V448.125H614.129V445.772ZM614.129 443.419H616.482V445.772H614.129V443.419ZM614.129 441.066H616.482V443.419H614.129V441.066ZM611.776 443.419H614.129V445.772H611.776V443.419ZM611.776 445.772H614.129V448.125H611.776V445.772ZM614.129 438.713H616.482V441.066H614.129V438.713ZM614.129 431.654H616.482V434.007H614.129V431.654ZM614.129 434.007H616.482V436.36H614.129V434.007ZM614.129 436.36H616.482V438.713H614.129V436.36ZM611.776 429.301H614.129V431.654H611.776V429.301ZM618.835 471.654H621.188V474.007H618.835V471.654ZM618.835 469.301H621.188V471.654H618.835V469.301ZM618.835 466.948H621.188V469.301H618.835V466.948ZM618.835 464.595H621.188V466.948H618.835V464.595ZM621.188 464.595H623.541V466.948H621.188V464.595ZM623.541 464.595H625.894V466.948H623.541V464.595ZM625.894 464.595H628.247V466.948H625.894V464.595ZM628.247 464.595H630.6V466.948H628.247V464.595ZM628.247 469.301H630.6V471.654H628.247V469.301ZM625.894 469.301H628.247V471.654H625.894V469.301ZM623.541 469.301H625.894V471.654H623.541V469.301ZM621.188 469.301H623.541V471.654H621.188V469.301ZM621.188 466.948H623.541V469.301H621.188V466.948ZM623.541 466.948H625.894V469.301H623.541V466.948ZM625.894 466.948H628.247V469.301H625.894V466.948ZM628.247 466.948H630.6V469.301H628.247V466.948ZM628.247 471.654H630.6V474.007H628.247V471.654ZM625.894 471.654H628.247V474.007H625.894V471.654ZM623.541 471.654H625.894V474.007H623.541V471.654ZM621.188 471.654H623.541V474.007H621.188V471.654ZM618.835 426.948H621.188V429.301H618.835V426.948ZM621.188 426.948H623.541V429.301H621.188V426.948ZM623.541 426.948H625.894V429.301H623.541V426.948ZM625.894 426.948H628.247V429.301H625.894V426.948ZM628.247 426.948H630.6V429.301H628.247V426.948ZM628.247 429.301H630.6V431.654H628.247V429.301ZM628.247 431.654H630.6V434.007H628.247V431.654ZM628.247 434.007H630.6V436.36H628.247V434.007ZM625.894 434.007H628.247V436.36H625.894V434.007ZM623.541 434.007H625.894V436.36H623.541V434.007ZM621.188 434.007H623.541V436.36H621.188V434.007ZM618.835 434.007H621.188V436.36H618.835V434.007ZM618.835 431.654H621.188V434.007H618.835V431.654ZM618.835 429.301H621.188V431.654H618.835V429.301ZM621.188 429.301H623.541V431.654H621.188V429.301ZM623.541 429.301H625.894V431.654H623.541V429.301ZM625.894 429.301H628.247V431.654H625.894V429.301ZM625.894 431.654H628.247V434.007H625.894V431.654ZM623.541 431.654H625.894V434.007H623.541V431.654ZM621.188 431.654H623.541V434.007H621.188V431.654ZM630.6 426.948H632.953V429.301H630.6V426.948ZM632.953 426.948H635.306V429.301H632.953V426.948ZM635.306 426.948H637.659V429.301H635.306V426.948ZM635.306 429.301H637.659V431.654H635.306V429.301ZM635.306 431.654H637.659V434.007H635.306V431.654ZM635.306 434.007H637.659V436.36H635.306V434.007ZM632.953 434.007H635.306V436.36H632.953V434.007ZM630.6 434.007H632.953V436.36H630.6V434.007ZM630.6 431.654H632.953V434.007H630.6V431.654ZM630.6 429.301H632.953V431.654H630.6V429.301ZM632.953 429.301H635.306V431.654H632.953V429.301ZM632.953 431.654H635.306V434.007H632.953V431.654ZM630.6 464.595H632.953V466.948H630.6V464.595ZM632.953 464.595H635.306V466.948H632.953V464.595ZM635.306 464.595H637.659V466.948H635.306V464.595ZM635.306 466.948H637.659V469.301H635.306V466.948ZM635.306 469.301H637.659V471.654H635.306V469.301ZM635.306 471.654H637.659V474.007H635.306V471.654ZM632.953 471.654H635.306V474.007H632.953V471.654ZM630.6 471.654H632.953V474.007H630.6V471.654ZM630.6 469.301H632.953V471.654H630.6V469.301ZM630.6 466.948H632.953V469.301H630.6V466.948ZM632.953 466.948H635.306V469.301H632.953V466.948ZM632.953 469.301H635.306V471.654H632.953V469.301ZM618.835 448.125H621.188V450.478H618.835V448.125ZM618.835 445.772H621.188V448.125H618.835V445.772ZM618.835 450.478H621.188V452.831H618.835V450.478ZM618.835 452.831H621.188V455.184H618.835V452.831ZM621.188 452.831H623.541V455.184H621.188V452.831ZM623.541 452.831H625.894V455.184H623.541V452.831ZM625.894 452.831H628.247V455.184H625.894V452.831ZM628.247 452.831H630.6V455.184H628.247V452.831ZM628.247 450.478H630.6V452.831H628.247V450.478ZM628.247 448.125H630.6V450.478H628.247V448.125ZM628.247 445.772H630.6V448.125H628.247V445.772ZM625.894 445.772H628.247V448.125H625.894V445.772ZM623.541 445.772H625.894V448.125H623.541V445.772ZM621.188 445.772H623.541V448.125H621.188V445.772ZM621.188 448.125H623.541V450.478H621.188V448.125ZM621.188 450.478H623.541V452.831H621.188V450.478ZM623.541 450.478H625.894V452.831H623.541V450.478ZM625.894 450.478H628.247V452.831H625.894V450.478ZM625.894 448.125H628.247V450.478H625.894V448.125ZM623.541 448.125H625.894V450.478H623.541V448.125ZM630.6 445.772H632.953V448.125H630.6V445.772ZM630.6 448.125H632.953V450.478H630.6V448.125ZM630.6 450.478H632.953V452.831H630.6V450.478ZM630.6 452.831H632.953V455.184H630.6V452.831ZM644.736 426.948H647.089V429.301H644.736V426.948ZM647.089 426.948H649.442V429.301H647.089V426.948ZM649.442 426.948H651.795V429.301H649.442V426.948ZM651.795 426.948H654.148V429.301H651.795V426.948ZM654.148 426.948H656.5V429.301H654.148V426.948ZM654.148 429.301H656.5V431.654H654.148V429.301ZM654.148 431.654H656.5V434.007H654.148V431.654ZM654.148 434.007H656.5V436.36H654.148V434.007ZM656.5 431.654H658.853V434.007H656.5V431.654ZM656.5 434.007H658.853V436.36H656.5V434.007ZM656.5 436.36H658.853V438.713H656.5V436.36ZM656.5 438.713H658.853V441.066H656.5V438.713ZM656.5 441.066H658.853V443.419H656.5V441.066ZM656.5 443.419H658.853V445.772H656.5V443.419ZM656.5 445.772H658.853V448.125H656.5V445.772ZM654.148 445.772H656.5V448.125H654.148V445.772ZM654.148 443.419H656.5V445.772H654.148V443.419ZM654.148 441.066H656.5V443.419H654.148V441.066ZM654.148 438.713H656.5V441.066H654.148V438.713ZM654.148 436.36H656.5V438.713H654.148V436.36ZM644.736 471.654H647.089V474.007H644.736V471.654ZM647.089 471.654H649.442V474.007H647.089V471.654ZM649.442 471.654H651.795V474.007H649.442V471.654ZM651.795 469.301H654.148V471.654H651.795V469.301ZM651.795 466.948H654.148V469.301H651.795V466.948ZM651.795 464.595H654.148V466.948H651.795V464.595ZM649.442 464.595H651.795V466.948H649.442V464.595ZM649.442 466.948H651.795V469.301H649.442V466.948ZM651.795 471.654H654.148V474.007H651.795V471.654ZM649.442 469.301H651.795V471.654H649.442V469.301ZM647.089 469.301H649.442V471.654H647.089V469.301ZM644.736 469.301H647.089V471.654H644.736V469.301ZM644.736 466.948H647.089V469.301H644.736V466.948ZM644.736 464.595H647.089V466.948H644.736V464.595ZM647.089 464.595H649.442V466.948H647.089V464.595ZM647.089 466.948H649.442V469.301H647.089V466.948ZM647.089 462.242H649.442V464.595H647.089V462.242ZM644.736 462.242H647.089V464.595H644.736V462.242ZM644.736 459.889H647.089V462.242H644.736V459.889ZM644.736 457.536H647.089V459.889H644.736V457.536ZM644.736 455.184H647.089V457.536H644.736V455.184ZM644.736 452.831H647.089V455.184H644.736V452.831ZM644.736 450.478H647.089V452.831H644.736V450.478ZM647.089 452.831H649.442V455.184H647.089V452.831ZM647.089 450.478H649.442V452.831H647.089V450.478ZM649.442 450.478H651.795V452.831H649.442V450.478ZM649.442 452.831H651.795V455.184H649.442V452.831ZM649.442 455.184H651.795V457.536H649.442V455.184ZM651.795 455.184H654.148V457.536H651.795V455.184ZM651.795 457.536H654.148V459.889H651.795V457.536ZM651.795 459.889H654.148V462.242H651.795V459.889ZM651.795 462.242H654.148V464.595H651.795V462.242ZM651.795 452.831H654.148V455.184H651.795V452.831ZM651.795 450.478H654.148V452.831H651.795V450.478ZM647.089 455.184H649.442V457.536H647.089V455.184ZM647.089 457.536H649.442V459.889H647.089V457.536ZM647.089 459.889H649.442V462.242H647.089V459.889ZM649.442 462.242H651.795V464.595H649.442V462.242ZM649.442 459.889H651.795V462.242H649.442V459.889ZM649.442 457.536H651.795V459.889H649.442V457.536ZM651.795 448.125H654.148V450.478H651.795V448.125ZM649.442 448.125H651.795V450.478H649.442V448.125ZM647.089 448.125H649.442V450.478H647.089V448.125ZM644.736 448.125H647.089V450.478H644.736V448.125ZM644.736 445.772H647.089V448.125H644.736V445.772ZM647.089 445.772H649.442V448.125H647.089V445.772ZM649.442 445.772H651.795V448.125H649.442V445.772ZM651.795 445.772H654.148V448.125H651.795V445.772ZM651.795 443.419H654.148V445.772H651.795V443.419ZM651.795 441.066H654.148V443.419H651.795V441.066ZM649.442 441.066H651.795V443.419H649.442V441.066ZM647.089 441.066H649.442V443.419H647.089V441.066ZM647.089 443.419H649.442V445.772H647.089V443.419ZM649.442 443.419H651.795V445.772H649.442V443.419ZM644.736 443.419H647.089V445.772H644.736V443.419ZM656.5 450.478H658.853V452.831H656.5V450.478ZM656.5 448.125H658.853V450.478H656.5V448.125ZM658.853 436.36H661.206V438.713H658.853V436.36ZM658.853 438.713H661.206V441.066H658.853V438.713ZM658.853 441.066H661.206V443.419H658.853V441.066ZM658.853 443.419H661.206V445.772H658.853V443.419ZM658.853 445.772H661.206V448.125H658.853V445.772ZM658.853 448.125H661.206V450.478H658.853V448.125ZM658.853 450.478H661.206V452.831H658.853V450.478ZM658.853 452.831H661.206V455.184H658.853V452.831ZM658.853 455.184H661.206V457.536H658.853V455.184ZM661.206 455.184H663.559V457.536H661.206V455.184ZM661.206 452.831H663.559V455.184H661.206V452.831ZM661.206 450.478H663.559V452.831H661.206V450.478ZM661.206 448.125H663.559V450.478H661.206V448.125ZM661.206 445.772H663.559V448.125H661.206V445.772ZM661.206 443.419H663.559V445.772H661.206V443.419ZM661.206 441.066H663.559V443.419H661.206V441.066ZM661.206 457.536H663.559V459.889H661.206V457.536ZM661.206 459.889H663.559V462.242H661.206V459.889ZM663.559 459.889H665.912V462.242H663.559V459.889ZM663.559 457.536H665.912V459.889H663.559V457.536ZM663.559 455.184H665.912V457.536H663.559V455.184ZM663.559 452.831H665.912V455.184H663.559V452.831ZM663.559 450.478H665.912V452.831H663.559V450.478ZM663.559 448.125H665.912V450.478H663.559V448.125ZM663.559 445.772H665.912V448.125H663.559V445.772ZM663.559 462.242H665.912V464.595H663.559V462.242ZM663.559 464.595H665.912V466.948H663.559V464.595ZM665.912 464.595H668.265V466.948H665.912V464.595ZM665.912 462.242H668.265V464.595H665.912V462.242ZM665.912 459.889H668.265V462.242H665.912V459.889ZM665.912 457.536H668.265V459.889H665.912V457.536ZM665.912 455.184H668.265V457.536H665.912V455.184ZM665.912 452.831H668.265V455.184H665.912V452.831ZM665.912 450.478H668.265V452.831H665.912V450.478ZM665.912 466.948H668.265V469.301H665.912V466.948ZM665.912 469.301H668.265V471.654H665.912V469.301ZM668.265 469.301H670.618V471.654H668.265V469.301ZM668.265 466.948H670.618V469.301H668.265V466.948ZM668.265 464.595H670.618V466.948H668.265V464.595ZM668.265 462.242H670.618V464.595H668.265V462.242ZM668.265 459.889H670.618V462.242H668.265V459.889ZM668.265 457.536H670.618V459.889H668.265V457.536ZM668.265 455.184H670.618V457.536H668.265V455.184ZM668.265 471.654H670.618V474.007H668.265V471.654ZM644.736 429.301H647.089V431.654H644.736V429.301ZM644.736 431.654H647.089V434.007H644.736V431.654ZM644.736 434.007H647.089V436.36H644.736V434.007ZM644.736 436.36H647.089V438.713H644.736V436.36ZM644.736 438.713H647.089V441.066H644.736V438.713ZM644.736 441.066H647.089V443.419H644.736V441.066ZM649.442 438.713H651.795V441.066H649.442V438.713ZM651.795 438.713H654.148V441.066H651.795V438.713ZM651.795 436.36H654.148V438.713H651.795V436.36ZM651.795 434.007H654.148V436.36H651.795V434.007ZM651.795 431.654H654.148V434.007H651.795V431.654ZM649.442 431.654H651.795V434.007H649.442V431.654ZM649.442 429.301H651.795V431.654H649.442V429.301ZM647.089 429.301H649.442V431.654H647.089V429.301ZM647.089 431.654H649.442V434.007H647.089V431.654ZM647.089 434.007H649.442V436.36H647.089V434.007ZM647.089 436.36H649.442V438.713H647.089V436.36ZM647.089 438.713H649.442V441.066H647.089V438.713ZM649.442 436.36H651.795V438.713H649.442V436.36ZM649.442 434.007H651.795V436.36H649.442V434.007ZM651.795 429.301H654.148V431.654H651.795V429.301ZM670.618 426.948H672.971V429.301H670.618V426.948ZM672.971 426.948H675.324V429.301H672.971V426.948ZM675.324 426.948H677.677V429.301H675.324V426.948ZM677.677 426.948H680.03V429.301H677.677V426.948ZM672.971 429.301H675.324V431.654H672.971V429.301ZM670.618 429.301H672.971V431.654H670.618V429.301ZM670.618 431.654H672.971V434.007H670.618V431.654ZM670.618 434.007H672.971V436.36H670.618V434.007ZM670.618 436.36H672.971V438.713H670.618V436.36ZM670.618 438.713H672.971V441.066H670.618V438.713ZM670.618 441.066H672.971V443.419H670.618V441.066ZM672.971 441.066H675.324V443.419H672.971V441.066ZM672.971 443.419H675.324V445.772H672.971V443.419ZM672.971 445.772H675.324V448.125H672.971V445.772ZM672.971 448.125H675.324V450.478H672.971V448.125ZM672.971 450.478H675.324V452.831H672.971V450.478ZM672.971 452.831H675.324V455.184H672.971V452.831ZM672.971 455.184H675.324V457.536H672.971V455.184ZM670.618 448.125H672.971V450.478H670.618V448.125ZM670.618 445.772H672.971V448.125H670.618V445.772ZM670.618 443.419H672.971V445.772H670.618V443.419ZM670.618 450.478H672.971V452.831H670.618V450.478ZM670.618 452.831H672.971V455.184H670.618V452.831ZM670.618 455.184H672.971V457.536H670.618V455.184ZM670.618 457.536H672.971V459.889H670.618V457.536ZM670.618 459.889H672.971V462.242H670.618V459.889ZM670.618 462.242H672.971V464.595H670.618V462.242ZM670.618 464.595H672.971V466.948H670.618V464.595ZM670.618 466.948H672.971V469.301H670.618V466.948ZM670.618 469.301H672.971V471.654H670.618V469.301ZM670.618 471.654H672.971V474.007H670.618V471.654ZM672.971 471.654H675.324V474.007H672.971V471.654ZM675.324 471.654H677.677V474.007H675.324V471.654ZM677.677 471.654H680.03V474.007H677.677V471.654ZM677.677 469.301H680.03V471.654H677.677V469.301ZM677.677 466.948H680.03V469.301H677.677V466.948ZM675.324 466.948H677.677V469.301H675.324V466.948ZM675.324 464.595H677.677V466.948H675.324V464.595ZM675.324 462.242H677.677V464.595H675.324V462.242ZM672.971 459.889H675.324V462.242H672.971V459.889ZM672.971 462.242H675.324V464.595H672.971V462.242ZM672.971 464.595H675.324V466.948H672.971V464.595ZM672.971 466.948H675.324V469.301H672.971V466.948ZM672.971 469.301H675.324V471.654H672.971V469.301ZM675.324 469.301H677.677V471.654H675.324V469.301ZM677.677 464.595H680.03V466.948H677.677V464.595ZM675.324 459.889H677.677V462.242H675.324V459.889ZM672.971 457.536H675.324V459.889H672.971V457.536ZM677.677 429.301H680.03V431.654H677.677V429.301ZM677.677 431.654H680.03V434.007H677.677V431.654ZM677.677 434.007H680.03V436.36H677.677V434.007ZM677.677 436.36H680.03V438.713H677.677V436.36ZM677.677 438.713H680.03V441.066H677.677V438.713ZM677.677 441.066H680.03V443.419H677.677V441.066ZM677.677 443.419H680.03V445.772H677.677V443.419ZM677.677 445.772H680.03V448.125H677.677V445.772ZM677.677 448.125H680.03V450.478H677.677V448.125ZM677.677 450.478H680.03V452.831H677.677V450.478ZM677.677 452.831H680.03V455.184H677.677V452.831ZM677.677 455.184H680.03V457.536H677.677V455.184ZM677.677 457.536H680.03V459.889H677.677V457.536ZM677.677 459.889H680.03V462.242H677.677V459.889ZM677.677 462.242H680.03V464.595H677.677V462.242ZM675.324 457.536H677.677V459.889H675.324V457.536ZM675.324 455.184H677.677V457.536H675.324V455.184ZM675.324 452.831H677.677V455.184H675.324V452.831ZM675.324 450.478H677.677V452.831H675.324V450.478ZM675.324 448.125H677.677V450.478H675.324V448.125ZM675.324 445.772H677.677V448.125H675.324V445.772ZM675.324 443.419H677.677V445.772H675.324V443.419ZM675.324 441.066H677.677V443.419H675.324V441.066ZM675.324 438.713H677.677V441.066H675.324V438.713ZM675.324 436.36H677.677V438.713H675.324V436.36ZM675.324 434.007H677.677V436.36H675.324V434.007ZM675.324 431.654H677.677V434.007H675.324V431.654ZM675.324 429.301H677.677V431.654H675.324V429.301ZM672.971 431.654H675.324V434.007H672.971V431.654ZM672.971 434.007H675.324V436.36H672.971V434.007ZM672.971 436.36H675.324V438.713H672.971V436.36ZM672.971 438.713H675.324V441.066H672.971V438.713ZM689.432 426.948H691.785V429.301H689.432V426.948ZM691.785 426.948H694.138V429.301H691.785V426.948ZM694.138 426.948H696.491V429.301H694.138V426.948ZM696.491 426.948H698.844V429.301H696.491V426.948ZM698.844 426.948H701.197V429.301H698.844V426.948ZM701.197 426.948H703.55V429.301H701.197V426.948ZM703.55 426.948H705.903V429.301H703.55V426.948ZM705.903 426.948H708.256V429.301H705.903V426.948ZM708.256 426.948H710.609V429.301H708.256V426.948ZM710.609 426.948H712.962V429.301H710.609V426.948ZM712.962 426.948H715.315V429.301H712.962V426.948ZM715.315 426.948H717.668V429.301H715.315V426.948ZM717.668 426.948H720.021V429.301H717.668V426.948ZM717.668 429.301H720.021V431.654H717.668V429.301ZM715.315 429.301H717.668V431.654H715.315V429.301ZM712.962 429.301H715.315V431.654H712.962V429.301ZM710.609 429.301H712.962V431.654H710.609V429.301ZM708.256 429.301H710.609V431.654H708.256V429.301ZM705.903 429.301H708.256V431.654H705.903V429.301ZM703.55 429.301H705.903V431.654H703.55V429.301ZM701.197 429.301H703.55V431.654H701.197V429.301ZM698.844 429.301H701.197V431.654H698.844V429.301ZM696.491 429.301H698.844V431.654H696.491V429.301ZM694.138 429.301H696.491V431.654H694.138V429.301ZM691.785 429.301H694.138V431.654H691.785V429.301ZM689.432 429.301H691.785V431.654H689.432V429.301ZM689.432 431.654H691.785V434.007H689.432V431.654ZM691.785 431.654H694.138V434.007H691.785V431.654ZM694.138 431.654H696.491V434.007H694.138V431.654ZM696.491 431.654H698.844V434.007H696.491V431.654ZM698.844 431.654H701.197V434.007H698.844V431.654ZM701.197 431.654H703.55V434.007H701.197V431.654ZM703.55 431.654H705.903V434.007H703.55V431.654ZM705.903 431.654H708.256V434.007H705.903V431.654ZM708.256 431.654H710.609V434.007H708.256V431.654ZM710.609 431.654H712.962V434.007H710.609V431.654ZM712.962 431.654H715.315V434.007H712.962V431.654ZM715.315 431.654H717.668V434.007H715.315V431.654ZM717.668 431.654H720.021V434.007H717.668V431.654ZM717.668 434.007H720.021V436.36H717.668V434.007ZM715.315 434.007H717.668V436.36H715.315V434.007ZM712.962 434.007H715.315V436.36H712.962V434.007ZM710.609 434.007H712.962V436.36H710.609V434.007ZM708.256 434.007H710.609V436.36H708.256V434.007ZM691.785 434.007H694.138V436.36H691.785V434.007ZM689.432 434.007H691.785V436.36H689.432V434.007ZM694.138 434.007H696.491V436.36H694.138V434.007ZM696.491 434.007H698.844V436.36H696.491V434.007ZM698.844 434.007H701.197V436.36H698.844V434.007ZM701.197 434.007H703.55V436.36H701.197V434.007ZM703.55 434.007H705.903V436.36H703.55V434.007ZM705.903 434.007H708.256V436.36H705.903V434.007ZM717.668 436.36H720.021V438.713H717.668V436.36ZM715.315 436.36H717.668V438.713H715.315V436.36ZM712.962 436.36H715.315V438.713H712.962V436.36ZM710.609 436.36H712.962V438.713H710.609V436.36ZM708.256 436.36H710.609V438.713H708.256V436.36ZM708.256 438.713H710.609V441.066H708.256V438.713ZM710.609 438.713H712.962V441.066H710.609V438.713ZM712.962 438.713H715.315V441.066H712.962V438.713ZM715.315 438.713H717.668V441.066H715.315V438.713ZM712.962 441.066H715.315V443.419H712.962V441.066ZM712.962 443.419H715.315V445.772H712.962V443.419ZM710.609 443.419H712.962V445.772H710.609V443.419ZM710.609 441.066H712.962V443.419H710.609V441.066ZM708.256 441.066H710.609V443.419H708.256V441.066ZM705.903 441.066H708.256V443.419H705.903V441.066ZM703.55 443.419H705.903V445.772H703.55V443.419ZM705.903 443.419H708.256V445.772H705.903V443.419ZM708.256 443.419H710.609V445.772H708.256V443.419ZM710.609 445.772H712.962V448.125H710.609V445.772ZM708.256 445.772H710.609V448.125H708.256V445.772ZM705.903 445.772H708.256V448.125H705.903V445.772ZM703.55 445.772H705.903V448.125H703.55V445.772ZM701.197 445.772H703.55V448.125H701.197V445.772ZM701.197 448.125H703.55V450.478H701.197V448.125ZM698.844 448.125H701.197V450.478H698.844V448.125ZM696.491 450.478H698.844V452.831H696.491V450.478ZM698.844 450.478H701.197V452.831H698.844V450.478ZM701.197 450.478H703.55V452.831H701.197V450.478ZM703.55 450.478H705.903V452.831H703.55V450.478ZM708.256 448.125H710.609V450.478H708.256V448.125ZM705.903 448.125H708.256V450.478H705.903V448.125ZM703.55 448.125H705.903V450.478H703.55V448.125ZM705.903 450.478H708.256V452.831H705.903V450.478ZM703.55 452.831H705.903V455.184H703.55V452.831ZM701.197 452.831H703.55V455.184H701.197V452.831ZM698.844 452.831H701.197V455.184H698.844V452.831ZM696.491 452.831H698.844V455.184H696.491V452.831ZM694.138 452.831H696.491V455.184H694.138V452.831ZM694.138 455.184H696.491V457.536H694.138V455.184ZM691.785 455.184H694.138V457.536H691.785V455.184ZM691.785 457.536H694.138V459.889H691.785V457.536ZM694.138 457.536H696.491V459.889H694.138V457.536ZM696.491 457.536H698.844V459.889H696.491V457.536ZM698.844 457.536H701.197V459.889H698.844V457.536ZM698.844 455.184H701.197V457.536H698.844V455.184ZM701.197 455.184H703.55V457.536H701.197V455.184ZM696.491 455.184H698.844V457.536H696.491V455.184ZM689.432 459.889H691.785V462.242H689.432V459.889ZM691.785 459.889H694.138V462.242H691.785V459.889ZM694.138 459.889H696.491V462.242H694.138V459.889ZM696.491 459.889H698.844V462.242H696.491V459.889ZM696.491 462.242H698.844V464.595H696.491V462.242ZM694.138 462.242H696.491V464.595H694.138V462.242ZM691.785 462.242H694.138V464.595H691.785V462.242ZM689.432 462.242H691.785V464.595H689.432V462.242ZM687.08 462.242H689.432V464.595H687.08V462.242ZM687.08 464.595H689.432V466.948H687.08V464.595ZM687.08 466.948H689.432V469.301H687.08V466.948ZM687.08 469.301H689.432V471.654H687.08V469.301ZM689.432 469.301H691.785V471.654H689.432V469.301ZM689.432 471.654H691.785V474.007H689.432V471.654ZM687.08 471.654H689.432V474.007H687.08V471.654ZM691.785 471.654H694.138V474.007H691.785V471.654ZM694.138 471.654H696.491V474.007H694.138V471.654ZM696.491 471.654H698.844V474.007H696.491V471.654ZM698.844 471.654H701.197V474.007H698.844V471.654ZM701.197 469.301H703.55V471.654H701.197V469.301ZM703.55 469.301H705.903V471.654H703.55V469.301ZM705.903 469.301H708.256V471.654H705.903V469.301ZM708.256 469.301H710.609V471.654H708.256V469.301ZM705.903 471.654H708.256V474.007H705.903V471.654ZM703.55 471.654H705.903V474.007H703.55V471.654ZM701.197 471.654H703.55V474.007H701.197V471.654ZM708.256 471.654H710.609V474.007H708.256V471.654ZM710.609 471.654H712.962V474.007H710.609V471.654ZM712.962 471.654H715.315V474.007H712.962V471.654ZM715.315 471.654H717.668V474.007H715.315V471.654ZM715.315 469.301H717.668V471.654H715.315V469.301ZM715.315 466.948H717.668V469.301H715.315V466.948ZM715.315 464.595H717.668V466.948H715.315V464.595ZM712.962 464.595H715.315V466.948H712.962V464.595ZM710.609 464.595H712.962V466.948H710.609V464.595ZM708.256 464.595H710.609V466.948H708.256V464.595ZM705.903 464.595H708.256V466.948H705.903V464.595ZM703.55 464.595H705.903V466.948H703.55V464.595ZM701.197 464.595H703.55V466.948H701.197V464.595ZM698.844 464.595H701.197V466.948H698.844V464.595ZM696.491 464.595H698.844V466.948H696.491V464.595ZM694.138 464.595H696.491V466.948H694.138V464.595ZM691.785 464.595H694.138V466.948H691.785V464.595ZM689.432 464.595H691.785V466.948H689.432V464.595ZM689.432 466.948H691.785V469.301H689.432V466.948ZM691.785 466.948H694.138V469.301H691.785V466.948ZM694.138 466.948H696.491V469.301H694.138V466.948ZM696.491 466.948H698.844V469.301H696.491V466.948ZM698.844 466.948H701.197V469.301H698.844V466.948ZM701.197 466.948H703.55V469.301H701.197V466.948ZM703.55 466.948H705.903V469.301H703.55V466.948ZM705.903 466.948H708.256V469.301H705.903V466.948ZM708.256 466.948H710.609V469.301H708.256V466.948ZM710.609 466.948H712.962V469.301H710.609V466.948ZM712.962 466.948H715.315V469.301H712.962V466.948ZM712.962 469.301H715.315V471.654H712.962V469.301ZM710.609 469.301H712.962V471.654H710.609V469.301ZM694.138 469.301H696.491V471.654H694.138V469.301ZM691.785 469.301H694.138V471.654H691.785V469.301ZM696.491 469.301H698.844V471.654H696.491V469.301ZM698.844 469.301H701.197V471.654H698.844V469.301ZM717.668 438.713H720.021V441.066H717.668V438.713ZM715.315 441.066H717.668V443.419H715.315V441.066ZM687.08 459.889H689.432V462.242H687.08V459.889ZM689.432 457.536H691.785V459.889H689.432V457.536ZM687.08 426.948H689.432V429.301H687.08V426.948ZM687.08 429.301H689.432V431.654H687.08V429.301ZM687.08 431.654H689.432V434.007H687.08V431.654ZM687.08 434.007H689.432V436.36H687.08V434.007ZM717.668 464.595H720.021V466.948H717.668V464.595ZM717.668 466.948H720.021V469.301H717.668V466.948ZM717.668 469.301H720.021V471.654H717.668V469.301ZM717.668 471.654H720.021V474.007H717.668V471.654ZM727.08 471.654H729.432V474.007H727.08V471.654ZM729.432 471.654H731.785V474.007H729.432V471.654ZM731.785 471.654H734.138V474.007H731.785V471.654ZM734.138 471.654H736.491V474.007H734.138V471.654ZM734.138 469.301H736.491V471.654H734.138V469.301ZM734.138 466.948H736.491V469.301H734.138V466.948ZM734.138 464.595H736.491V466.948H734.138V464.595ZM734.138 462.242H736.491V464.595H734.138V462.242ZM731.785 462.242H734.138V464.595H731.785V462.242ZM729.432 462.242H731.785V464.595H729.432V462.242ZM729.432 464.595H731.785V466.948H729.432V464.595ZM729.432 466.948H731.785V469.301H729.432V466.948ZM727.08 466.948H729.432V469.301H727.08V466.948ZM727.08 469.301H729.432V471.654H727.08V469.301ZM729.432 469.301H731.785V471.654H729.432V469.301ZM731.785 469.301H734.138V471.654H731.785V469.301ZM731.785 466.948H734.138V469.301H731.785V466.948ZM731.785 464.595H734.138V466.948H731.785V464.595ZM727.08 464.595H729.432V466.948H727.08V464.595ZM727.08 462.242H729.432V464.595H727.08V462.242ZM727.08 459.889H729.432V462.242H727.08V459.889ZM727.08 457.536H729.432V459.889H727.08V457.536ZM727.08 455.184H729.432V457.536H727.08V455.184ZM727.08 452.831H729.432V455.184H727.08V452.831ZM727.08 450.478H729.432V452.831H727.08V450.478ZM727.08 448.125H729.432V450.478H727.08V448.125ZM727.08 445.772H729.432V448.125H727.08V445.772ZM727.08 443.419H729.432V445.772H727.08V443.419ZM727.08 441.066H729.432V443.419H727.08V441.066ZM729.432 441.066H731.785V443.419H729.432V441.066ZM731.785 441.066H734.138V443.419H731.785V441.066ZM731.785 443.419H734.138V445.772H731.785V443.419ZM734.138 443.419H736.491V445.772H734.138V443.419ZM734.138 445.772H736.491V448.125H734.138V445.772ZM734.138 448.125H736.491V450.478H734.138V448.125ZM734.138 450.478H736.491V452.831H734.138V450.478ZM734.138 455.184H736.491V457.536H734.138V455.184ZM734.138 457.536H736.491V459.889H734.138V457.536ZM734.138 459.889H736.491V462.242H734.138V459.889ZM731.785 459.889H734.138V462.242H731.785V459.889ZM731.785 457.536H734.138V459.889H731.785V457.536ZM731.785 455.184H734.138V457.536H731.785V455.184ZM731.785 452.831H734.138V455.184H731.785V452.831ZM731.785 450.478H734.138V452.831H731.785V450.478ZM731.785 448.125H734.138V450.478H731.785V448.125ZM731.785 445.772H734.138V448.125H731.785V445.772ZM729.432 445.772H731.785V448.125H729.432V445.772ZM729.432 443.419H731.785V445.772H729.432V443.419ZM729.432 448.125H731.785V450.478H729.432V448.125ZM729.432 450.478H731.785V452.831H729.432V450.478ZM729.432 455.184H731.785V457.536H729.432V455.184ZM729.432 457.536H731.785V459.889H729.432V457.536ZM729.432 459.889H731.785V462.242H729.432V459.889ZM729.432 452.831H731.785V455.184H729.432V452.831ZM734.138 452.831H736.491V455.184H734.138V452.831ZM736.491 452.831H738.844V455.184H736.491V452.831ZM741.197 452.831H743.55V455.184H741.197V452.831ZM743.55 452.831H745.903V455.184H743.55V452.831ZM745.903 452.831H748.256V455.184H745.903V452.831ZM748.256 452.831H750.609V455.184H748.256V452.831ZM750.609 452.831H752.962V455.184H750.609V452.831ZM752.962 452.831H755.315V455.184H752.962V452.831ZM752.962 455.184H755.315V457.536H752.962V455.184ZM752.962 457.536H755.315V459.889H752.962V457.536ZM752.962 459.889H755.315V462.242H752.962V459.889ZM750.609 459.889H752.962V462.242H750.609V459.889ZM748.256 459.889H750.609V462.242H748.256V459.889ZM745.903 459.889H748.256V462.242H745.903V459.889ZM743.55 459.889H745.903V462.242H743.55V459.889ZM741.197 457.536H743.55V459.889H741.197V457.536ZM738.844 457.536H741.197V459.889H738.844V457.536ZM736.491 457.536H738.844V459.889H736.491V457.536ZM736.491 455.184H738.844V457.536H736.491V455.184ZM738.844 452.831H741.197V455.184H738.844V452.831ZM738.844 455.184H741.197V457.536H738.844V455.184ZM736.491 459.889H738.844V462.242H736.491V459.889ZM738.844 459.889H741.197V462.242H738.844V459.889ZM741.197 459.889H743.55V462.242H741.197V459.889ZM745.903 457.536H748.256V459.889H745.903V457.536ZM745.903 455.184H748.256V457.536H745.903V455.184ZM743.55 455.184H745.903V457.536H743.55V455.184ZM741.197 455.184H743.55V457.536H741.197V455.184ZM743.55 457.536H745.903V459.889H743.55V457.536ZM748.256 455.184H750.609V457.536H748.256V455.184ZM750.609 455.184H752.962V457.536H750.609V455.184ZM750.609 457.536H752.962V459.889H750.609V457.536ZM748.256 457.536H750.609V459.889H748.256V457.536ZM750.609 462.242H752.962V464.595H750.609V462.242ZM750.609 464.595H752.962V466.948H750.609V464.595ZM750.609 466.948H752.962V469.301H750.609V466.948ZM750.609 469.301H752.962V471.654H750.609V469.301ZM752.962 469.301H755.315V471.654H752.962V469.301ZM752.962 471.654H755.315V474.007H752.962V471.654ZM755.315 471.654H757.668V474.007H755.315V471.654ZM750.609 471.654H752.962V474.007H750.609V471.654ZM755.315 457.536H757.668V459.889H755.315V457.536ZM755.315 455.184H757.668V457.536H755.315V455.184ZM755.315 452.831H757.668V455.184H755.315V452.831ZM755.315 450.478H757.668V452.831H755.315V450.478ZM755.315 441.066H757.668V443.419H755.315V441.066ZM755.315 443.419H757.668V445.772H755.315V443.419ZM752.962 443.419H755.315V445.772H752.962V443.419ZM752.962 445.772H755.315V448.125H752.962V445.772ZM752.962 448.125H755.315V450.478H752.962V448.125ZM752.962 450.478H755.315V452.831H752.962V450.478ZM755.315 448.125H757.668V450.478H755.315V448.125ZM755.315 445.772H757.668V448.125H755.315V445.772ZM750.609 443.419H752.962V445.772H750.609V443.419ZM750.609 445.772H752.962V448.125H750.609V445.772ZM750.609 448.125H752.962V450.478H750.609V448.125ZM750.609 450.478H752.962V452.831H750.609V450.478ZM752.962 462.242H755.315V464.595H752.962V462.242ZM752.962 464.595H755.315V466.948H752.962V464.595ZM752.962 466.948H755.315V469.301H752.962V466.948ZM755.315 466.948H757.668V469.301H755.315V466.948ZM755.315 464.595H757.668V466.948H755.315V464.595ZM755.315 462.242H757.668V464.595H755.315V462.242ZM755.315 459.889H757.668V462.242H755.315V459.889ZM755.315 469.301H757.668V471.654H755.315V469.301ZM729.432 438.713H731.785V441.066H729.432V438.713ZM731.785 438.713H734.138V441.066H731.785V438.713ZM734.138 438.713H736.491V441.066H734.138V438.713ZM736.491 438.713H738.844V441.066H736.491V438.713ZM738.844 438.713H741.197V441.066H738.844V438.713ZM743.55 438.713H745.903V441.066H743.55V438.713ZM745.903 438.713H748.256V441.066H745.903V438.713ZM748.256 438.713H750.609V441.066H748.256V438.713ZM750.609 438.713H752.962V441.066H750.609V438.713ZM752.962 438.713H755.315V441.066H752.962V438.713ZM752.962 441.066H755.315V443.419H752.962V441.066ZM750.609 441.066H752.962V443.419H750.609V441.066ZM748.256 441.066H750.609V443.419H748.256V441.066ZM745.903 441.066H748.256V443.419H745.903V441.066ZM734.138 441.066H736.491V443.419H734.138V441.066ZM736.491 441.066H738.844V443.419H736.491V441.066ZM731.785 436.36H734.138V438.713H731.785V436.36ZM734.138 436.36H736.491V438.713H734.138V436.36ZM738.844 436.36H741.197V438.713H738.844V436.36ZM741.197 436.36H743.55V438.713H741.197V436.36ZM743.55 436.36H745.903V438.713H743.55V436.36ZM745.903 436.36H748.256V438.713H745.903V436.36ZM748.256 436.36H750.609V438.713H748.256V436.36ZM750.609 436.36H752.962V438.713H750.609V436.36ZM752.962 436.36H755.315V438.713H752.962V436.36ZM750.609 434.007H752.962V436.36H750.609V434.007ZM748.256 434.007H750.609V436.36H748.256V434.007ZM745.903 434.007H748.256V436.36H745.903V434.007ZM743.55 434.007H745.903V436.36H743.55V434.007ZM741.197 434.007H743.55V436.36H741.197V434.007ZM736.491 436.36H738.844V438.713H736.491V436.36ZM734.138 434.007H736.491V436.36H734.138V434.007ZM736.491 434.007H738.844V436.36H736.491V434.007ZM738.844 434.007H741.197V436.36H738.844V434.007ZM738.844 431.654H741.197V434.007H738.844V431.654ZM736.491 431.654H738.844V434.007H736.491V431.654ZM741.197 431.654H743.55V434.007H741.197V431.654ZM743.55 431.654H745.903V434.007H743.55V431.654ZM745.903 431.654H748.256V434.007H745.903V431.654ZM748.256 431.654H750.609V434.007H748.256V431.654ZM738.844 429.301H741.197V431.654H738.844V429.301ZM741.197 429.301H743.55V431.654H741.197V429.301ZM743.55 429.301H745.903V431.654H743.55V429.301ZM745.903 429.301H748.256V431.654H745.903V429.301ZM741.197 426.948H743.55V429.301H741.197V426.948ZM743.55 426.948H745.903V429.301H743.55V426.948ZM755.315 438.713H757.668V441.066H755.315V438.713ZM727.08 438.713H729.432V441.066H727.08V438.713ZM729.432 436.36H731.785V438.713H729.432V436.36ZM731.785 434.007H734.138V436.36H731.785V434.007ZM734.138 431.654H736.491V434.007H734.138V431.654ZM736.491 429.301H738.844V431.654H736.491V429.301ZM738.844 426.948H741.197V429.301H738.844V426.948ZM748.256 443.419H750.609V445.772H748.256V443.419ZM748.256 445.772H750.609V448.125H748.256V445.772ZM748.256 448.125H750.609V450.478H748.256V448.125ZM748.256 450.478H750.609V452.831H748.256V450.478ZM748.256 462.242H750.609V464.595H748.256V462.242ZM748.256 464.595H750.609V466.948H748.256V464.595ZM748.256 466.948H750.609V469.301H748.256V466.948ZM748.256 469.301H750.609V471.654H748.256V469.301ZM748.256 471.654H750.609V474.007H748.256V471.654ZM792.971 450.478H795.324V452.831H792.971V450.478ZM792.971 448.125H795.324V450.478H792.971V448.125ZM792.971 445.772H795.324V448.125H792.971V445.772ZM792.971 443.419H795.324V445.772H792.971V443.419ZM792.971 441.066H795.324V443.419H792.971V441.066ZM792.971 438.713H795.324V441.066H792.971V438.713ZM792.971 436.36H795.324V438.713H792.971V436.36ZM792.971 434.007H795.324V436.36H792.971V434.007ZM790.618 434.007H792.971V436.36H790.618V434.007ZM790.618 431.654H792.971V434.007H790.618V431.654ZM790.618 429.301H792.971V431.654H790.618V429.301ZM788.265 429.301H790.618V431.654H788.265V429.301ZM788.265 431.654H790.618V434.007H788.265V431.654ZM788.265 434.007H790.618V436.36H788.265V434.007ZM788.265 436.36H790.618V438.713H788.265V436.36ZM788.265 438.713H790.618V441.066H788.265V438.713ZM788.265 441.066H790.618V443.419H788.265V441.066ZM788.265 443.419H790.618V445.772H788.265V443.419ZM788.265 445.772H790.618V448.125H788.265V445.772ZM788.265 448.125H790.618V450.478H788.265V448.125ZM788.265 450.478H790.618V452.831H788.265V450.478ZM788.265 452.831H790.618V455.184H788.265V452.831ZM788.265 455.184H790.618V457.536H788.265V455.184ZM790.618 452.831H792.971V455.184H790.618V452.831ZM790.618 450.478H792.971V452.831H790.618V450.478ZM790.618 448.125H792.971V450.478H790.618V448.125ZM790.618 445.772H792.971V448.125H790.618V445.772ZM790.618 443.419H792.971V445.772H790.618V443.419ZM790.618 441.066H792.971V443.419H790.618V441.066ZM790.618 438.713H792.971V441.066H790.618V438.713ZM790.618 436.36H792.971V438.713H790.618V436.36ZM785.912 436.36H788.265V438.713H785.912V436.36ZM783.559 436.36H785.912V438.713H783.559V436.36ZM785.912 434.007H788.265V436.36H785.912V434.007ZM783.559 434.007H785.912V436.36H783.559V434.007ZM781.206 434.007H783.559V436.36H781.206V434.007ZM778.853 434.007H781.206V436.36H778.853V434.007ZM776.5 434.007H778.853V436.36H776.5V434.007ZM774.148 434.007H776.5V436.36H774.148V434.007ZM771.795 434.007H774.148V436.36H771.795V434.007ZM771.795 436.36H774.148V438.713H771.795V436.36ZM771.795 438.713H774.148V441.066H771.795V438.713ZM771.795 441.066H774.148V443.419H771.795V441.066ZM771.795 443.419H774.148V445.772H771.795V443.419ZM771.795 445.772H774.148V448.125H771.795V445.772ZM771.795 448.125H774.148V450.478H771.795V448.125ZM771.795 450.478H774.148V452.831H771.795V450.478ZM774.148 450.478H776.5V452.831H774.148V450.478ZM774.148 452.831H776.5V455.184H774.148V452.831ZM776.5 452.831H778.853V455.184H776.5V452.831ZM778.853 452.831H781.206V455.184H778.853V452.831ZM781.206 452.831H783.559V455.184H781.206V452.831ZM783.559 452.831H785.912V455.184H783.559V452.831ZM783.559 450.478H785.912V452.831H783.559V450.478ZM781.206 450.478H783.559V452.831H781.206V450.478ZM778.853 450.478H781.206V452.831H778.853V450.478ZM776.5 450.478H778.853V452.831H776.5V450.478ZM785.912 450.478H788.265V452.831H785.912V450.478ZM785.912 448.125H788.265V450.478H785.912V448.125ZM783.559 448.125H785.912V450.478H783.559V448.125ZM785.912 445.772H788.265V448.125H785.912V445.772ZM785.912 438.713H788.265V441.066H785.912V438.713ZM785.912 441.066H788.265V443.419H785.912V441.066ZM785.912 443.419H788.265V445.772H785.912V443.419ZM785.912 452.831H788.265V455.184H785.912V452.831ZM785.912 455.184H788.265V457.536H785.912V455.184ZM785.912 457.536H788.265V459.889H785.912V457.536ZM783.559 457.536H785.912V459.889H783.559V457.536ZM781.206 457.536H783.559V459.889H781.206V457.536ZM778.853 457.536H781.206V459.889H778.853V457.536ZM776.5 457.536H778.853V459.889H776.5V457.536ZM776.5 455.184H778.853V457.536H776.5V455.184ZM774.148 455.184H776.5V457.536H774.148V455.184ZM774.148 457.536H776.5V459.889H774.148V457.536ZM778.853 455.184H781.206V457.536H778.853V455.184ZM781.206 455.184H783.559V457.536H781.206V455.184ZM783.559 455.184H785.912V457.536H783.559V455.184ZM785.912 426.948H788.265V429.301H785.912V426.948ZM785.912 429.301H788.265V431.654H785.912V429.301ZM785.912 431.654H788.265V434.007H785.912V431.654ZM783.559 431.654H785.912V434.007H783.559V431.654ZM783.559 429.301H785.912V431.654H783.559V429.301ZM783.559 426.948H785.912V429.301H783.559V426.948ZM781.206 426.948H783.559V429.301H781.206V426.948ZM778.853 426.948H781.206V429.301H778.853V426.948ZM776.5 426.948H778.853V429.301H776.5V426.948ZM774.148 426.948H776.5V429.301H774.148V426.948ZM771.795 426.948H774.148V429.301H771.795V426.948ZM769.442 426.948H771.795V429.301H769.442V426.948ZM767.089 426.948H769.442V429.301H767.089V426.948ZM764.736 426.948H767.089V429.301H764.736V426.948ZM764.736 429.301H767.089V431.654H764.736V429.301ZM764.736 431.654H767.089V434.007H764.736V431.654ZM764.736 434.007H767.089V436.36H764.736V434.007ZM767.089 434.007H769.442V436.36H767.089V434.007ZM767.089 431.654H769.442V434.007H767.089V431.654ZM769.442 431.654H771.795V434.007H769.442V431.654ZM771.795 431.654H774.148V434.007H771.795V431.654ZM774.148 431.654H776.5V434.007H774.148V431.654ZM776.5 431.654H778.853V434.007H776.5V431.654ZM778.853 431.654H781.206V434.007H778.853V431.654ZM781.206 431.654H783.559V434.007H781.206V431.654ZM781.206 429.301H783.559V431.654H781.206V429.301ZM778.853 429.301H781.206V431.654H778.853V429.301ZM776.5 429.301H778.853V431.654H776.5V429.301ZM774.148 429.301H776.5V431.654H774.148V429.301ZM771.795 429.301H774.148V431.654H771.795V429.301ZM769.442 429.301H771.795V431.654H769.442V429.301ZM767.089 436.36H769.442V438.713H767.089V436.36ZM767.089 438.713H769.442V441.066H767.089V438.713ZM767.089 429.301H769.442V431.654H767.089V429.301ZM769.442 434.007H771.795V436.36H769.442V434.007ZM769.442 436.36H771.795V438.713H769.442V436.36ZM769.442 438.713H771.795V441.066H769.442V438.713ZM769.442 441.066H771.795V443.419H769.442V441.066ZM769.442 443.419H771.795V445.772H769.442V443.419ZM769.442 445.772H771.795V448.125H769.442V445.772ZM769.442 448.125H771.795V450.478H769.442V448.125ZM769.442 450.478H771.795V452.831H769.442V450.478ZM767.089 450.478H769.442V452.831H767.089V450.478ZM767.089 448.125H769.442V450.478H767.089V448.125ZM767.089 445.772H769.442V448.125H767.089V445.772ZM767.089 443.419H769.442V445.772H767.089V443.419ZM764.736 441.066H767.089V443.419H764.736V441.066ZM764.736 438.713H767.089V441.066H764.736V438.713ZM764.736 436.36H767.089V438.713H764.736V436.36ZM764.736 443.419H767.089V445.772H764.736V443.419ZM764.736 445.772H767.089V448.125H764.736V445.772ZM767.089 441.066H769.442V443.419H767.089V441.066ZM764.736 448.125H767.089V450.478H764.736V448.125ZM764.736 450.478H767.089V452.831H764.736V450.478ZM764.736 452.831H767.089V455.184H764.736V452.831ZM764.736 455.184H767.089V457.536H764.736V455.184ZM767.089 455.184H769.442V457.536H767.089V455.184ZM769.442 455.184H771.795V457.536H769.442V455.184ZM771.795 455.184H774.148V457.536H771.795V455.184ZM771.795 457.536H774.148V459.889H771.795V457.536ZM769.442 457.536H771.795V459.889H769.442V457.536ZM767.089 457.536H769.442V459.889H767.089V457.536ZM764.736 457.536H767.089V459.889H764.736V457.536ZM767.089 452.831H769.442V455.184H767.089V452.831ZM769.442 452.831H771.795V455.184H769.442V452.831ZM771.795 452.831H774.148V455.184H771.795V452.831ZM764.736 459.889H767.089V462.242H764.736V459.889ZM764.736 462.242H767.089V464.595H764.736V462.242ZM764.736 464.595H767.089V466.948H764.736V464.595ZM764.736 466.948H767.089V469.301H764.736V466.948ZM764.736 469.301H767.089V471.654H764.736V469.301ZM764.736 471.654H767.089V474.007H764.736V471.654ZM767.089 471.654H769.442V474.007H767.089V471.654ZM769.442 471.654H771.795V474.007H769.442V471.654ZM771.795 471.654H774.148V474.007H771.795V471.654ZM771.795 469.301H774.148V471.654H771.795V469.301ZM771.795 466.948H774.148V469.301H771.795V466.948ZM771.795 464.595H774.148V466.948H771.795V464.595ZM771.795 462.242H774.148V464.595H771.795V462.242ZM771.795 459.889H774.148V462.242H771.795V459.889ZM769.442 459.889H771.795V462.242H769.442V459.889ZM767.089 459.889H769.442V462.242H767.089V459.889ZM767.089 462.242H769.442V464.595H767.089V462.242ZM767.089 464.595H769.442V466.948H767.089V464.595ZM767.089 466.948H769.442V469.301H767.089V466.948ZM767.089 469.301H769.442V471.654H767.089V469.301ZM769.442 469.301H771.795V471.654H769.442V469.301ZM769.442 466.948H771.795V469.301H769.442V466.948ZM769.442 464.595H771.795V466.948H769.442V464.595ZM769.442 462.242H771.795V464.595H769.442V462.242ZM792.971 462.242H795.324V464.595H792.971V462.242ZM792.971 464.595H795.324V466.948H792.971V464.595ZM792.971 466.948H795.324V469.301H792.971V466.948ZM792.971 469.301H795.324V471.654H792.971V469.301ZM792.971 471.654H795.324V474.007H792.971V471.654ZM790.618 471.654H792.971V474.007H790.618V471.654ZM788.265 471.654H790.618V474.007H788.265V471.654ZM785.912 471.654H788.265V474.007H785.912V471.654ZM785.912 469.301H788.265V471.654H785.912V469.301ZM785.912 466.948H788.265V469.301H785.912V466.948ZM785.912 464.595H788.265V466.948H785.912V464.595ZM788.265 464.595H790.618V466.948H788.265V464.595ZM790.618 462.242H792.971V464.595H790.618V462.242ZM790.618 464.595H792.971V466.948H790.618V464.595ZM790.618 466.948H792.971V469.301H790.618V466.948ZM788.265 466.948H790.618V469.301H788.265V466.948ZM788.265 469.301H790.618V471.654H788.265V469.301ZM790.618 469.301H792.971V471.654H790.618V469.301ZM788.265 462.242H790.618V464.595H788.265V462.242ZM785.912 462.242H788.265V464.595H785.912V462.242ZM785.912 459.889H788.265V462.242H785.912V459.889ZM788.265 459.889H790.618V462.242H788.265V459.889ZM792.971 459.889H795.324V462.242H792.971V459.889ZM790.618 459.889H792.971V462.242H790.618V459.889ZM790.618 457.536H792.971V459.889H790.618V457.536ZM788.265 457.536H790.618V459.889H788.265V457.536ZM781.206 459.889H783.559V462.242H781.206V459.889ZM783.559 459.889H785.912V462.242H783.559V459.889ZM783.559 462.242H785.912V464.595H783.559V462.242Z" fill="white" fill-opacity="0.01"/>
<defs>
<filter id="filter0_d_368_295" x="425.467" y="401" width="429.867" height="104" filterUnits="userSpaceOnUse" color-interpolation-filters="sRGB">
<feFlood flood-opacity="0" result="BackgroundImageFix"/>
<feColorMatrix in="SourceAlpha" type="matrix" values="0 0 0 0 0 0 0 0 0 0 0 0 0 0 0 0 0 0 127 0" result="hardAlpha"/>
<feOffset dy="4"/>
<feGaussianBlur stdDeviation="2"/>
<feComposite in2="hardAlpha" operator="out"/>
<feColorMatrix type="matrix" values="0 0 0 0 0 0 0 0 0 0 0 0 0 0 0 0 0 0 0.25 0"/>
<feBlend mode="normal" in2="BackgroundImageFix" result="effect1_dropShadow_368_295"/>
<feBlend mode="normal" in="SourceGraphic" in2="effect1_dropShadow_368_295" result="shape"/>
</filter>
</defs>
</svg>
