<svg width="1280" height="822" viewBox="0 0 1280 822" fill="none" xmlns="http://www.w3.org/2000/svg">
<g clip-path="url(#clip0_600_914)">
<g clip-path="url(#clip1_600_914)">
<path d="M161.417 426.311C178.629 403.933 212.371 403.933 229.583 426.311L324.557 549.783C346.308 578.061 326.149 619 290.474 619H100.526C64.8506 619 44.6915 578.061 66.4425 549.783L161.417 426.311Z" fill="#415836"/>
<g filter="url(#filter0_d_600_914)">
<path d="M98.7462 319.155C108.639 301.262 134.361 301.262 144.254 319.155L246.961 504.92C256.542 522.249 244.008 543.5 224.207 543.5H18.793C-1.00813 543.5 -13.5417 522.249 -3.9608 504.92L98.7462 319.155Z" fill="#58754A"/>
</g>
<g filter="url(#filter1_d_600_914)">
<path d="M1168.75 312.155C1178.64 294.262 1204.36 294.262 1214.25 312.155L1316.96 497.92C1326.54 515.249 1314.01 536.5 1294.21 536.5H1088.79C1068.99 536.5 1056.46 515.249 1066.04 497.92L1168.75 312.155Z" fill="#58754A"/>
</g>
<path d="M1214.51 422.188C1231.2 405.942 1257.8 405.942 1274.49 422.188L1395.99 540.435C1423.64 567.35 1404.59 614.25 1366 614.25H1123C1084.41 614.25 1065.36 567.35 1093.01 540.435L1214.51 422.188Z" fill="#415836"/>
<ellipse cx="31.0746" cy="50.6709" rx="54.0746" ry="36.5537" fill="white"/>
<ellipse cx="72.8055" cy="27.1191" rx="56.4257" ry="33.1191" fill="white"/>
<ellipse cx="74.5688" cy="60.4839" rx="58.189" ry="38.5163" fill="white"/>
<ellipse cx="50.2451" cy="32.6368" rx="50.2451" ry="32.6368" transform="matrix(0.999589 -0.0286651 0.0411174 0.999154 69.8668 16.9976)" fill="white"/>
<path d="M29.0598 442.044C45.7404 425.863 72.2596 425.863 88.9402 442.044L227.942 576.886C255.666 603.78 236.627 650.75 198.002 650.75H-80.002C-118.627 650.75 -137.666 603.78 -109.942 576.886L29.0598 442.044Z" fill="#749862"/>
<path d="M1078.3 470.225C1094.13 457.292 1116.87 457.292 1132.7 470.225L1248.96 565.2C1280.27 590.776 1262.18 641.5 1221.76 641.5H989.244C948.817 641.5 930.732 590.776 962.039 565.2L1078.3 470.225Z" fill="#749862"/>
<path d="M-1 582H1288V725H-1V582Z" fill="url(#paint0_linear_600_914)"/>
<path d="M161.417 426.311C178.629 403.933 212.371 403.933 229.583 426.311L324.557 549.783C346.308 578.061 326.149 619 290.474 619H100.526C64.8506 619 44.6915 578.061 66.4425 549.783L161.417 426.311Z" fill="#415836"/>
<path d="M1214.51 422.188C1231.2 405.942 1257.8 405.942 1274.49 422.188L1395.99 540.435C1423.64 567.35 1404.59 614.25 1366 614.25H1123C1084.41 614.25 1065.36 567.35 1093.01 540.435L1214.51 422.188Z" fill="#415836"/>
<ellipse cx="31.0746" cy="50.6709" rx="54.0746" ry="36.5537" fill="white"/>
<ellipse cx="72.8055" cy="27.1191" rx="56.4257" ry="33.1191" fill="white"/>
<ellipse cx="74.5688" cy="60.4839" rx="58.189" ry="38.5163" fill="white"/>
<ellipse cx="50.2451" cy="32.6368" rx="50.2451" ry="32.6368" transform="matrix(0.999589 -0.0286651 0.0411174 0.999154 69.8668 16.9976)" fill="white"/>
<path d="M29.0598 442.044C45.7404 425.863 72.2596 425.863 88.9402 442.044L227.942 576.886C255.666 603.78 236.627 650.75 198.002 650.75H-80.002C-118.627 650.75 -137.666 603.78 -109.942 576.886L29.0598 442.044Z" fill="#749862"/>
<path d="M1078.3 470.225C1094.13 457.292 1116.87 457.292 1132.7 470.225L1248.96 565.2C1280.27 590.776 1262.18 641.5 1221.76 641.5H989.244C948.817 641.5 930.732 590.776 962.039 565.2L1078.3 470.225Z" fill="#749862"/>
<path d="M-1 582H1280V725H-1V582Z" fill="url(#paint1_linear_600_914)"/>
<g clip-path="url(#clip2_600_914)">
<path d="M422.265 550.474C422.265 572.274 403.292 589.947 379.888 589.947C356.484 589.947 337.511 572.274 337.511 550.474C337.511 528.673 356.484 511 379.888 511C403.292 511 422.265 528.673 422.265 550.474Z" fill="#749862"/>
<path d="M476.507 561.526C476.507 583.327 457.534 601 434.13 601C410.726 601 391.753 583.327 391.753 561.526C391.753 539.726 410.726 522.053 434.13 522.053C457.534 522.053 476.507 539.726 476.507 561.526Z" fill="#749862"/>
<path d="M401.076 544.158C424.48 544.158 443.452 561.831 443.452 583.632C443.452 589.864 441.9 595.758 439.138 601H363.014C360.252 595.758 358.699 589.864 358.699 583.632C358.699 561.831 377.672 544.158 401.076 544.158Z" fill="#749862"/>
<path d="M453.624 544.158C477.028 544.158 496 561.831 496 583.632C496 589.864 494.447 595.758 491.685 601H415.561C412.8 595.758 411.247 589.864 411.247 583.632C411.247 561.831 430.22 544.158 453.624 544.158Z" fill="#749862"/>
<path d="M349.377 544.158C372.781 544.158 391.753 561.831 391.753 583.632C391.753 589.864 390.2 595.758 387.438 601H311.314C308.553 595.758 307 589.864 307 583.632C307 561.831 325.973 544.158 349.377 544.158Z" fill="#749862"/>
<ellipse cx="338.134" cy="122.388" rx="56.1342" ry="43.4664" fill="white"/>
<ellipse cx="381.455" cy="94.3823" rx="58.5748" ry="39.3823" fill="white"/>
<ellipse cx="383.286" cy="134.056" rx="60.4053" ry="45.8002" fill="white"/>
<ellipse cx="52.1656" cy="38.801" rx="52.1656" ry="38.801" transform="matrix(0.999461 -0.0328311 0.0359025 0.999355 378.404 82.3464)" fill="white"/>
<ellipse cx="898.075" cy="191.465" rx="54.0746" ry="43.5162" fill="white"/>
<ellipse cx="939.806" cy="163.427" rx="56.4257" ry="39.4274" fill="white"/>
<ellipse cx="941.569" cy="203.148" rx="58.189" ry="45.8526" fill="white"/>
<ellipse cx="50.2537" cy="38.8436" rx="50.2537" ry="38.8436" transform="matrix(0.999418 -0.0341192 0.0345473 0.999403 936.867 151.378)" fill="white"/>
<ellipse cx="898.075" cy="191.465" rx="54.0746" ry="43.5162" fill="white"/>
<ellipse cx="939.806" cy="163.427" rx="56.4257" ry="39.4274" fill="white"/>
<ellipse cx="941.569" cy="203.148" rx="58.189" ry="45.8526" fill="white"/>
<ellipse cx="50.2537" cy="38.8436" rx="50.2537" ry="38.8436" transform="matrix(0.999418 -0.0341192 0.0345473 0.999403 936.867 151.378)" fill="white"/>
<g filter="url(#filter2_d_600_914)">
<ellipse cx="1118.98" cy="95.3875" rx="50.9761" ry="43.4664" fill="white"/>
</g>
<g filter="url(#filter3_d_600_914)">
<ellipse cx="47.3775" cy="38.7966" rx="47.3775" ry="38.7966" transform="matrix(0.999346 -0.0361491 0.0326071 0.999468 1155.55 55.3467)" fill="white"/>
</g>
<ellipse cx="1158.32" cy="67.3823" rx="53.1924" ry="39.3823" fill="white"/>
<g filter="url(#filter4_d_600_914)">
<ellipse cx="1159.98" cy="107.057" rx="54.8547" ry="45.8002" fill="white"/>
</g>
<g filter="url(#filter5_d_600_914)">
<ellipse cx="121.976" cy="214.388" rx="50.9761" ry="43.4664" fill="white"/>
</g>
<g filter="url(#filter6_d_600_914)">
<ellipse cx="47.3775" cy="38.7966" rx="47.3775" ry="38.7966" transform="matrix(0.999346 -0.0361491 0.0326071 0.999468 158.546 174.347)" fill="white"/>
</g>
<ellipse cx="161.316" cy="186.382" rx="53.1924" ry="39.3823" fill="white"/>
<g filter="url(#filter7_d_600_914)">
<ellipse cx="162.978" cy="226.057" rx="54.8547" ry="45.8002" fill="white"/>
</g>
<g filter="url(#filter8_d_600_914)">
<ellipse cx="-12.0239" cy="37.3875" rx="50.9761" ry="43.4664" fill="white"/>
</g>
<g filter="url(#filter9_d_600_914)">
<ellipse cx="47.3775" cy="38.7966" rx="47.3775" ry="38.7966" transform="matrix(0.999346 -0.0361491 0.0326071 0.999468 24.5458 -2.65332)" fill="white"/>
</g>
<ellipse cx="27.3158" cy="9.3823" rx="53.1924" ry="39.3823" fill="white"/>
<g filter="url(#filter10_d_600_914)">
<ellipse cx="28.9781" cy="49.0565" rx="54.8547" ry="45.8002" fill="white"/>
</g>
<g filter="url(#filter11_d_600_914)">
<ellipse cx="1248.98" cy="258.388" rx="50.9761" ry="43.4664" fill="white"/>
</g>
<ellipse cx="1288.32" cy="230.382" rx="53.1924" ry="39.3823" fill="white"/>
<g filter="url(#filter12_d_600_914)">
<ellipse cx="1289.98" cy="270.057" rx="54.8547" ry="45.8002" fill="white"/>
</g>
<g filter="url(#filter13_d_600_914)">
<ellipse cx="862.976" cy="242.388" rx="50.9761" ry="43.4664" fill="white"/>
</g>
<g filter="url(#filter14_d_600_914)">
<ellipse cx="47.3775" cy="38.7966" rx="47.3775" ry="38.7966" transform="matrix(0.999346 -0.0361491 0.0326071 0.999468 899.546 202.347)" fill="white"/>
</g>
<ellipse cx="902.316" cy="214.382" rx="53.1924" ry="39.3823" fill="white"/>
<g filter="url(#filter15_d_600_914)">
<ellipse cx="903.978" cy="254.057" rx="54.8547" ry="45.8002" fill="white"/>
</g>
<g filter="url(#filter16_d_600_914)">
<ellipse cx="910.976" cy="193.388" rx="50.9761" ry="43.4664" fill="white"/>
</g>
<g filter="url(#filter17_d_600_914)">
<ellipse cx="47.3775" cy="38.7966" rx="47.3775" ry="38.7966" transform="matrix(0.999346 -0.0361491 0.0326071 0.999468 947.546 153.347)" fill="white"/>
</g>
<ellipse cx="950.316" cy="165.382" rx="53.1924" ry="39.3823" fill="white"/>
<g filter="url(#filter18_d_600_914)">
<ellipse cx="951.978" cy="205.057" rx="54.8547" ry="45.8002" fill="white"/>
</g>
<g filter="url(#filter19_d_600_914)">
<ellipse cx="388.976" cy="98.3875" rx="50.9761" ry="43.4664" fill="white"/>
</g>
<g filter="url(#filter20_d_600_914)">
<ellipse cx="47.3775" cy="38.7966" rx="47.3775" ry="38.7966" transform="matrix(0.999346 -0.0361491 0.0326071 0.999468 425.546 58.3467)" fill="white"/>
</g>
<ellipse cx="428.316" cy="70.3823" rx="53.1924" ry="39.3823" fill="white"/>
<g filter="url(#filter21_d_600_914)">
<ellipse cx="429.978" cy="110.057" rx="54.8547" ry="45.8002" fill="white"/>
</g>
<ellipse cx="898.075" cy="191.465" rx="54.0746" ry="43.5162" fill="white"/>
<ellipse cx="939.806" cy="163.427" rx="56.4257" ry="39.4274" fill="white"/>
<ellipse cx="941.569" cy="203.148" rx="58.189" ry="45.8526" fill="white"/>
<ellipse cx="50.2537" cy="38.8436" rx="50.2537" ry="38.8436" transform="matrix(0.999418 -0.0341192 0.0345473 0.999403 936.867 151.378)" fill="white"/>
<ellipse cx="898.075" cy="191.465" rx="54.0746" ry="43.5162" fill="white"/>
<ellipse cx="939.806" cy="163.427" rx="56.4257" ry="39.4274" fill="white"/>
<ellipse cx="941.569" cy="203.148" rx="58.189" ry="45.8526" fill="white"/>
<ellipse cx="50.2537" cy="38.8436" rx="50.2537" ry="38.8436" transform="matrix(0.999418 -0.0341192 0.0345473 0.999403 936.867 151.378)" fill="white"/>
<path d="M974.884 439.791C991.341 424.648 1016.66 424.648 1033.12 439.791L1130.73 529.607C1159.56 556.134 1140.79 604.25 1101.61 604.25H906.39C867.213 604.25 848.445 556.135 877.274 529.607L974.884 439.791Z" fill="#58754A"/>
<path d="M253.246 440.156C269.743 424.842 295.257 424.842 311.754 440.156L413.104 534.235C441.749 560.826 422.934 608.75 383.85 608.75H181.15C142.066 608.75 123.251 560.826 151.896 534.235L253.246 440.156Z" fill="#58754A"/>
<g filter="url(#filter22_d_600_914)">
<path d="M81.3184 653.456C81.3184 685.188 57.728 710.912 28.6278 710.912C-0.472366 710.912 -24.0627 685.188 -24.0627 653.456C-24.0627 621.724 -0.472366 596 28.6278 596C57.728 596 81.3184 621.724 81.3184 653.456Z" fill="#749862"/>
<path d="M148.762 669.544C148.762 701.276 125.172 727 96.0717 727C66.9715 727 43.3811 701.276 43.3811 669.544C43.3811 637.812 66.9715 612.088 96.0717 612.088C125.172 612.088 148.762 637.812 148.762 669.544Z" fill="#749862"/>
<path d="M54.9729 644.263C84.0731 644.263 107.663 669.987 107.663 701.719C107.663 710.791 105.735 719.371 102.301 727H7.64478C4.21114 719.372 2.28247 710.791 2.28247 701.719C2.28251 669.987 25.8728 644.263 54.9729 644.263Z" fill="#749862"/>
<path d="M120.309 644.263C149.41 644.263 173 669.987 173 701.719C173 710.791 171.071 719.371 167.637 727H72.9812C69.5476 719.372 67.6189 710.791 67.6189 701.719C67.6189 669.987 91.2092 644.263 120.309 644.263Z" fill="#749862"/>
<path d="M-9.30957 644.263C19.7906 644.263 43.3808 669.987 43.3809 701.719C43.3809 710.791 41.4522 719.371 38.0186 727H-56.6377C-60.0713 719.372 -62 710.791 -62 701.719C-62 669.987 -38.4097 644.263 -9.30957 644.263Z" fill="#749862"/>
</g>
<g filter="url(#filter23_d_600_914)">
<path d="M1238.32 653.456C1238.32 685.188 1214.73 710.912 1185.63 710.912C1156.53 710.912 1132.94 685.188 1132.94 653.456C1132.94 621.724 1156.53 596 1185.63 596C1214.73 596 1238.32 621.724 1238.32 653.456Z" fill="#749862"/>
<path d="M1305.76 669.544C1305.76 701.276 1282.17 727 1253.07 727C1223.97 727 1200.38 701.276 1200.38 669.544C1200.38 637.812 1223.97 612.088 1253.07 612.088C1282.17 612.088 1305.76 637.812 1305.76 669.544Z" fill="#749862"/>
<path d="M1211.97 644.263C1241.07 644.263 1264.66 669.987 1264.66 701.719C1264.66 710.791 1262.73 719.371 1259.3 727H1164.64C1161.21 719.372 1159.28 710.791 1159.28 701.719C1159.28 669.987 1182.87 644.263 1211.97 644.263Z" fill="#749862"/>
<path d="M1277.31 644.263C1306.41 644.263 1330 669.987 1330 701.719C1330 710.791 1328.07 719.371 1324.64 727H1229.98C1226.55 719.372 1224.62 710.791 1224.62 701.719C1224.62 669.987 1248.21 644.263 1277.31 644.263Z" fill="#749862"/>
<path d="M1147.69 644.263C1176.79 644.263 1200.38 669.987 1200.38 701.719C1200.38 710.791 1198.45 719.371 1195.02 727H1100.36C1096.93 719.372 1095 710.791 1095 701.719C1095 669.987 1118.59 644.263 1147.69 644.263Z" fill="#749862"/>
</g>
<path d="M897.265 561.474C897.265 583.274 878.292 600.947 854.888 600.947C831.484 600.947 812.511 583.274 812.511 561.474C812.511 539.673 831.484 522 854.888 522C878.292 522 897.265 539.673 897.265 561.474Z" fill="#749862"/>
<path d="M951.507 572.526C951.507 594.327 932.534 612 909.13 612C885.726 612 866.753 594.327 866.753 572.526C866.753 550.726 885.726 533.053 909.13 533.053C932.534 533.053 951.507 550.726 951.507 572.526Z" fill="#749862"/>
<path d="M876.076 555.158C899.48 555.158 918.452 572.831 918.452 594.632C918.452 600.864 916.9 606.758 914.138 612H838.014C835.252 606.758 833.7 600.864 833.7 594.632C833.7 572.831 852.672 555.158 876.076 555.158Z" fill="#749862"/>
<path d="M928.624 555.158C952.028 555.158 971 572.831 971 594.632C971 600.864 969.447 606.758 966.685 612H890.561C887.8 606.758 886.247 600.864 886.247 594.632C886.247 572.831 905.22 555.158 928.624 555.158Z" fill="#749862"/>
<path d="M824.377 555.158C847.781 555.158 866.753 572.831 866.753 594.632C866.753 600.864 865.2 606.758 862.438 612H786.314C783.553 606.758 782 600.864 782 594.632C782 572.831 800.973 555.158 824.377 555.158Z" fill="#749862"/>
</g>
</g>
</g>
<defs>
<filter id="filter0_d_600_914" x="-21.8443" y="304.135" width="286.689" height="266.965" filterUnits="userSpaceOnUse" color-interpolation-filters="sRGB">
<feFlood flood-opacity="0" result="BackgroundImageFix"/>
<feColorMatrix in="SourceAlpha" type="matrix" values="0 0 0 0 0 0 0 0 0 0 0 0 0 0 0 0 0 0 127 0" result="hardAlpha"/>
<feOffset dy="13"/>
<feGaussianBlur stdDeviation="7.3"/>
<feComposite in2="hardAlpha" operator="out"/>
<feColorMatrix type="matrix" values="0 0 0 0 0 0 0 0 0 0 0 0 0 0 0 0 0 0 0.25 0"/>
<feBlend mode="normal" in2="BackgroundImageFix" result="effect1_dropShadow_600_914"/>
<feBlend mode="normal" in="SourceGraphic" in2="effect1_dropShadow_600_914" result="shape"/>
</filter>
<filter id="filter1_d_600_914" x="1048.16" y="297.135" width="286.688" height="266.965" filterUnits="userSpaceOnUse" color-interpolation-filters="sRGB">
<feFlood flood-opacity="0" result="BackgroundImageFix"/>
<feColorMatrix in="SourceAlpha" type="matrix" values="0 0 0 0 0 0 0 0 0 0 0 0 0 0 0 0 0 0 127 0" result="hardAlpha"/>
<feOffset dy="13"/>
<feGaussianBlur stdDeviation="7.3"/>
<feComposite in2="hardAlpha" operator="out"/>
<feColorMatrix type="matrix" values="0 0 0 0 0 0 0 0 0 0 0 0 0 0 0 0 0 0 0.25 0"/>
<feBlend mode="normal" in2="BackgroundImageFix" result="effect1_dropShadow_600_914"/>
<feBlend mode="normal" in="SourceGraphic" in2="effect1_dropShadow_600_914" result="shape"/>
</filter>
<filter id="filter2_d_600_914" x="1035" y="51.9211" width="134.952" height="124.933" filterUnits="userSpaceOnUse" color-interpolation-filters="sRGB">
<feFlood flood-opacity="0" result="BackgroundImageFix"/>
<feColorMatrix in="SourceAlpha" type="matrix" values="0 0 0 0 0 0 0 0 0 0 0 0 0 0 0 0 0 0 127 0" result="hardAlpha"/>
<feOffset dx="-17" dy="22"/>
<feGaussianBlur stdDeviation="8"/>
<feComposite in2="hardAlpha" operator="out"/>
<feColorMatrix type="matrix" values="0 0 0 0 0 0 0 0 0 0 0 0 0 0 0 0 0 0 0.05 0"/>
<feBlend mode="normal" in2="BackgroundImageFix" result="effect1_dropShadow_600_914"/>
<feBlend mode="normal" in="SourceGraphic" in2="effect1_dropShadow_600_914" result="shape"/>
</filter>
<filter id="filter3_d_600_914" x="1152.39" y="49.1955" width="133.528" height="116.429" filterUnits="userSpaceOnUse" color-interpolation-filters="sRGB">
<feFlood flood-opacity="0" result="BackgroundImageFix"/>
<feColorMatrix in="SourceAlpha" type="matrix" values="0 0 0 0 0 0 0 0 0 0 0 0 0 0 0 0 0 0 127 0" result="hardAlpha"/>
<feOffset dx="15" dy="15"/>
<feGaussianBlur stdDeviation="9.7"/>
<feComposite in2="hardAlpha" operator="out"/>
<feColorMatrix type="matrix" values="0 0 0 0 0 0 0 0 0 0 0 0 0 0 0 0 0 0 0.06 0"/>
<feBlend mode="normal" in2="BackgroundImageFix" result="effect1_dropShadow_600_914"/>
<feBlend mode="normal" in="SourceGraphic" in2="effect1_dropShadow_600_914" result="shape"/>
</filter>
<filter id="filter4_d_600_914" x="1066.22" y="56.3563" width="187.509" height="169.4" filterUnits="userSpaceOnUse" color-interpolation-filters="sRGB">
<feFlood flood-opacity="0" result="BackgroundImageFix"/>
<feColorMatrix in="SourceAlpha" type="matrix" values="0 0 0 0 0 0 0 0 0 0 0 0 0 0 0 0 0 0 127 0" result="hardAlpha"/>
<feOffset dy="34"/>
<feGaussianBlur stdDeviation="19.45"/>
<feComposite in2="hardAlpha" operator="out"/>
<feColorMatrix type="matrix" values="0 0 0 0 0 0 0 0 0 0 0 0 0 0 0 0 0 0 0.09 0"/>
<feBlend mode="normal" in2="BackgroundImageFix" result="effect1_dropShadow_600_914"/>
<feBlend mode="normal" in="SourceGraphic" in2="effect1_dropShadow_600_914" result="shape"/>
</filter>
<filter id="filter5_d_600_914" x="38" y="170.921" width="134.952" height="124.933" filterUnits="userSpaceOnUse" color-interpolation-filters="sRGB">
<feFlood flood-opacity="0" result="BackgroundImageFix"/>
<feColorMatrix in="SourceAlpha" type="matrix" values="0 0 0 0 0 0 0 0 0 0 0 0 0 0 0 0 0 0 127 0" result="hardAlpha"/>
<feOffset dx="-17" dy="22"/>
<feGaussianBlur stdDeviation="8"/>
<feComposite in2="hardAlpha" operator="out"/>
<feColorMatrix type="matrix" values="0 0 0 0 0 0 0 0 0 0 0 0 0 0 0 0 0 0 0.05 0"/>
<feBlend mode="normal" in2="BackgroundImageFix" result="effect1_dropShadow_600_914"/>
<feBlend mode="normal" in="SourceGraphic" in2="effect1_dropShadow_600_914" result="shape"/>
</filter>
<filter id="filter6_d_600_914" x="155.394" y="168.195" width="133.528" height="116.429" filterUnits="userSpaceOnUse" color-interpolation-filters="sRGB">
<feFlood flood-opacity="0" result="BackgroundImageFix"/>
<feColorMatrix in="SourceAlpha" type="matrix" values="0 0 0 0 0 0 0 0 0 0 0 0 0 0 0 0 0 0 127 0" result="hardAlpha"/>
<feOffset dx="15" dy="15"/>
<feGaussianBlur stdDeviation="9.7"/>
<feComposite in2="hardAlpha" operator="out"/>
<feColorMatrix type="matrix" values="0 0 0 0 0 0 0 0 0 0 0 0 0 0 0 0 0 0 0.06 0"/>
<feBlend mode="normal" in2="BackgroundImageFix" result="effect1_dropShadow_600_914"/>
<feBlend mode="normal" in="SourceGraphic" in2="effect1_dropShadow_600_914" result="shape"/>
</filter>
<filter id="filter7_d_600_914" x="69.2234" y="175.356" width="187.509" height="169.4" filterUnits="userSpaceOnUse" color-interpolation-filters="sRGB">
<feFlood flood-opacity="0" result="BackgroundImageFix"/>
<feColorMatrix in="SourceAlpha" type="matrix" values="0 0 0 0 0 0 0 0 0 0 0 0 0 0 0 0 0 0 127 0" result="hardAlpha"/>
<feOffset dy="34"/>
<feGaussianBlur stdDeviation="19.45"/>
<feComposite in2="hardAlpha" operator="out"/>
<feColorMatrix type="matrix" values="0 0 0 0 0 0 0 0 0 0 0 0 0 0 0 0 0 0 0.09 0"/>
<feBlend mode="normal" in2="BackgroundImageFix" result="effect1_dropShadow_600_914"/>
<feBlend mode="normal" in="SourceGraphic" in2="effect1_dropShadow_600_914" result="shape"/>
</filter>
<filter id="filter8_d_600_914" x="-96" y="-6.07886" width="134.952" height="124.933" filterUnits="userSpaceOnUse" color-interpolation-filters="sRGB">
<feFlood flood-opacity="0" result="BackgroundImageFix"/>
<feColorMatrix in="SourceAlpha" type="matrix" values="0 0 0 0 0 0 0 0 0 0 0 0 0 0 0 0 0 0 127 0" result="hardAlpha"/>
<feOffset dx="-17" dy="22"/>
<feGaussianBlur stdDeviation="8"/>
<feComposite in2="hardAlpha" operator="out"/>
<feColorMatrix type="matrix" values="0 0 0 0 0 0 0 0 0 0 0 0 0 0 0 0 0 0 0.05 0"/>
<feBlend mode="normal" in2="BackgroundImageFix" result="effect1_dropShadow_600_914"/>
<feBlend mode="normal" in="SourceGraphic" in2="effect1_dropShadow_600_914" result="shape"/>
</filter>
<filter id="filter9_d_600_914" x="21.3936" y="-8.80448" width="133.528" height="116.429" filterUnits="userSpaceOnUse" color-interpolation-filters="sRGB">
<feFlood flood-opacity="0" result="BackgroundImageFix"/>
<feColorMatrix in="SourceAlpha" type="matrix" values="0 0 0 0 0 0 0 0 0 0 0 0 0 0 0 0 0 0 127 0" result="hardAlpha"/>
<feOffset dx="15" dy="15"/>
<feGaussianBlur stdDeviation="9.7"/>
<feComposite in2="hardAlpha" operator="out"/>
<feColorMatrix type="matrix" values="0 0 0 0 0 0 0 0 0 0 0 0 0 0 0 0 0 0 0.06 0"/>
<feBlend mode="normal" in2="BackgroundImageFix" result="effect1_dropShadow_600_914"/>
<feBlend mode="normal" in="SourceGraphic" in2="effect1_dropShadow_600_914" result="shape"/>
</filter>
<filter id="filter10_d_600_914" x="-64.7766" y="-1.64365" width="187.509" height="169.4" filterUnits="userSpaceOnUse" color-interpolation-filters="sRGB">
<feFlood flood-opacity="0" result="BackgroundImageFix"/>
<feColorMatrix in="SourceAlpha" type="matrix" values="0 0 0 0 0 0 0 0 0 0 0 0 0 0 0 0 0 0 127 0" result="hardAlpha"/>
<feOffset dy="34"/>
<feGaussianBlur stdDeviation="19.45"/>
<feComposite in2="hardAlpha" operator="out"/>
<feColorMatrix type="matrix" values="0 0 0 0 0 0 0 0 0 0 0 0 0 0 0 0 0 0 0.09 0"/>
<feBlend mode="normal" in2="BackgroundImageFix" result="effect1_dropShadow_600_914"/>
<feBlend mode="normal" in="SourceGraphic" in2="effect1_dropShadow_600_914" result="shape"/>
</filter>
<filter id="filter11_d_600_914" x="1165" y="214.921" width="134.952" height="124.933" filterUnits="userSpaceOnUse" color-interpolation-filters="sRGB">
<feFlood flood-opacity="0" result="BackgroundImageFix"/>
<feColorMatrix in="SourceAlpha" type="matrix" values="0 0 0 0 0 0 0 0 0 0 0 0 0 0 0 0 0 0 127 0" result="hardAlpha"/>
<feOffset dx="-17" dy="22"/>
<feGaussianBlur stdDeviation="8"/>
<feComposite in2="hardAlpha" operator="out"/>
<feColorMatrix type="matrix" values="0 0 0 0 0 0 0 0 0 0 0 0 0 0 0 0 0 0 0.05 0"/>
<feBlend mode="normal" in2="BackgroundImageFix" result="effect1_dropShadow_600_914"/>
<feBlend mode="normal" in="SourceGraphic" in2="effect1_dropShadow_600_914" result="shape"/>
</filter>
<filter id="filter12_d_600_914" x="1196.22" y="219.356" width="187.509" height="169.4" filterUnits="userSpaceOnUse" color-interpolation-filters="sRGB">
<feFlood flood-opacity="0" result="BackgroundImageFix"/>
<feColorMatrix in="SourceAlpha" type="matrix" values="0 0 0 0 0 0 0 0 0 0 0 0 0 0 0 0 0 0 127 0" result="hardAlpha"/>
<feOffset dy="34"/>
<feGaussianBlur stdDeviation="19.45"/>
<feComposite in2="hardAlpha" operator="out"/>
<feColorMatrix type="matrix" values="0 0 0 0 0 0 0 0 0 0 0 0 0 0 0 0 0 0 0.09 0"/>
<feBlend mode="normal" in2="BackgroundImageFix" result="effect1_dropShadow_600_914"/>
<feBlend mode="normal" in="SourceGraphic" in2="effect1_dropShadow_600_914" result="shape"/>
</filter>
<filter id="filter13_d_600_914" x="779" y="198.921" width="134.952" height="124.933" filterUnits="userSpaceOnUse" color-interpolation-filters="sRGB">
<feFlood flood-opacity="0" result="BackgroundImageFix"/>
<feColorMatrix in="SourceAlpha" type="matrix" values="0 0 0 0 0 0 0 0 0 0 0 0 0 0 0 0 0 0 127 0" result="hardAlpha"/>
<feOffset dx="-17" dy="22"/>
<feGaussianBlur stdDeviation="8"/>
<feComposite in2="hardAlpha" operator="out"/>
<feColorMatrix type="matrix" values="0 0 0 0 0 0 0 0 0 0 0 0 0 0 0 0 0 0 0.05 0"/>
<feBlend mode="normal" in2="BackgroundImageFix" result="effect1_dropShadow_600_914"/>
<feBlend mode="normal" in="SourceGraphic" in2="effect1_dropShadow_600_914" result="shape"/>
</filter>
<filter id="filter14_d_600_914" x="896.394" y="196.195" width="133.528" height="116.429" filterUnits="userSpaceOnUse" color-interpolation-filters="sRGB">
<feFlood flood-opacity="0" result="BackgroundImageFix"/>
<feColorMatrix in="SourceAlpha" type="matrix" values="0 0 0 0 0 0 0 0 0 0 0 0 0 0 0 0 0 0 127 0" result="hardAlpha"/>
<feOffset dx="15" dy="15"/>
<feGaussianBlur stdDeviation="9.7"/>
<feComposite in2="hardAlpha" operator="out"/>
<feColorMatrix type="matrix" values="0 0 0 0 0 0 0 0 0 0 0 0 0 0 0 0 0 0 0.06 0"/>
<feBlend mode="normal" in2="BackgroundImageFix" result="effect1_dropShadow_600_914"/>
<feBlend mode="normal" in="SourceGraphic" in2="effect1_dropShadow_600_914" result="shape"/>
</filter>
<filter id="filter15_d_600_914" x="810.223" y="203.356" width="187.509" height="169.4" filterUnits="userSpaceOnUse" color-interpolation-filters="sRGB">
<feFlood flood-opacity="0" result="BackgroundImageFix"/>
<feColorMatrix in="SourceAlpha" type="matrix" values="0 0 0 0 0 0 0 0 0 0 0 0 0 0 0 0 0 0 127 0" result="hardAlpha"/>
<feOffset dy="34"/>
<feGaussianBlur stdDeviation="19.45"/>
<feComposite in2="hardAlpha" operator="out"/>
<feColorMatrix type="matrix" values="0 0 0 0 0 0 0 0 0 0 0 0 0 0 0 0 0 0 0.09 0"/>
<feBlend mode="normal" in2="BackgroundImageFix" result="effect1_dropShadow_600_914"/>
<feBlend mode="normal" in="SourceGraphic" in2="effect1_dropShadow_600_914" result="shape"/>
</filter>
<filter id="filter16_d_600_914" x="827" y="149.921" width="134.952" height="124.933" filterUnits="userSpaceOnUse" color-interpolation-filters="sRGB">
<feFlood flood-opacity="0" result="BackgroundImageFix"/>
<feColorMatrix in="SourceAlpha" type="matrix" values="0 0 0 0 0 0 0 0 0 0 0 0 0 0 0 0 0 0 127 0" result="hardAlpha"/>
<feOffset dx="-17" dy="22"/>
<feGaussianBlur stdDeviation="8"/>
<feComposite in2="hardAlpha" operator="out"/>
<feColorMatrix type="matrix" values="0 0 0 0 0 0 0 0 0 0 0 0 0 0 0 0 0 0 0.05 0"/>
<feBlend mode="normal" in2="BackgroundImageFix" result="effect1_dropShadow_600_914"/>
<feBlend mode="normal" in="SourceGraphic" in2="effect1_dropShadow_600_914" result="shape"/>
</filter>
<filter id="filter17_d_600_914" x="944.394" y="147.195" width="133.528" height="116.429" filterUnits="userSpaceOnUse" color-interpolation-filters="sRGB">
<feFlood flood-opacity="0" result="BackgroundImageFix"/>
<feColorMatrix in="SourceAlpha" type="matrix" values="0 0 0 0 0 0 0 0 0 0 0 0 0 0 0 0 0 0 127 0" result="hardAlpha"/>
<feOffset dx="15" dy="15"/>
<feGaussianBlur stdDeviation="9.7"/>
<feComposite in2="hardAlpha" operator="out"/>
<feColorMatrix type="matrix" values="0 0 0 0 0 0 0 0 0 0 0 0 0 0 0 0 0 0 0.06 0"/>
<feBlend mode="normal" in2="BackgroundImageFix" result="effect1_dropShadow_600_914"/>
<feBlend mode="normal" in="SourceGraphic" in2="effect1_dropShadow_600_914" result="shape"/>
</filter>
<filter id="filter18_d_600_914" x="858.223" y="159.256" width="187.509" height="189.5" filterUnits="userSpaceOnUse" color-interpolation-filters="sRGB">
<feFlood flood-opacity="0" result="BackgroundImageFix"/>
<feColorMatrix in="SourceAlpha" type="matrix" values="0 0 0 0 0 0 0 0 0 0 0 0 0 0 0 0 0 0 127 0" result="hardAlpha"/>
<feOffset dy="59"/>
<feGaussianBlur stdDeviation="19.45"/>
<feComposite in2="hardAlpha" operator="out"/>
<feColorMatrix type="matrix" values="0 0 0 0 0 0 0 0 0 0 0 0 0 0 0 0 0 0 0.13 0"/>
<feBlend mode="normal" in2="BackgroundImageFix" result="effect1_dropShadow_600_914"/>
<feBlend mode="normal" in="SourceGraphic" in2="effect1_dropShadow_600_914" result="shape"/>
</filter>
<filter id="filter19_d_600_914" x="305" y="54.9211" width="134.952" height="124.933" filterUnits="userSpaceOnUse" color-interpolation-filters="sRGB">
<feFlood flood-opacity="0" result="BackgroundImageFix"/>
<feColorMatrix in="SourceAlpha" type="matrix" values="0 0 0 0 0 0 0 0 0 0 0 0 0 0 0 0 0 0 127 0" result="hardAlpha"/>
<feOffset dx="-17" dy="22"/>
<feGaussianBlur stdDeviation="8"/>
<feComposite in2="hardAlpha" operator="out"/>
<feColorMatrix type="matrix" values="0 0 0 0 0 0 0 0 0 0 0 0 0 0 0 0 0 0 0.05 0"/>
<feBlend mode="normal" in2="BackgroundImageFix" result="effect1_dropShadow_600_914"/>
<feBlend mode="normal" in="SourceGraphic" in2="effect1_dropShadow_600_914" result="shape"/>
</filter>
<filter id="filter20_d_600_914" x="422.394" y="52.1955" width="133.528" height="116.429" filterUnits="userSpaceOnUse" color-interpolation-filters="sRGB">
<feFlood flood-opacity="0" result="BackgroundImageFix"/>
<feColorMatrix in="SourceAlpha" type="matrix" values="0 0 0 0 0 0 0 0 0 0 0 0 0 0 0 0 0 0 127 0" result="hardAlpha"/>
<feOffset dx="15" dy="15"/>
<feGaussianBlur stdDeviation="9.7"/>
<feComposite in2="hardAlpha" operator="out"/>
<feColorMatrix type="matrix" values="0 0 0 0 0 0 0 0 0 0 0 0 0 0 0 0 0 0 0.06 0"/>
<feBlend mode="normal" in2="BackgroundImageFix" result="effect1_dropShadow_600_914"/>
<feBlend mode="normal" in="SourceGraphic" in2="effect1_dropShadow_600_914" result="shape"/>
</filter>
<filter id="filter21_d_600_914" x="336.223" y="64.2563" width="187.509" height="189.5" filterUnits="userSpaceOnUse" color-interpolation-filters="sRGB">
<feFlood flood-opacity="0" result="BackgroundImageFix"/>
<feColorMatrix in="SourceAlpha" type="matrix" values="0 0 0 0 0 0 0 0 0 0 0 0 0 0 0 0 0 0 127 0" result="hardAlpha"/>
<feOffset dy="59"/>
<feGaussianBlur stdDeviation="19.45"/>
<feComposite in2="hardAlpha" operator="out"/>
<feColorMatrix type="matrix" values="0 0 0 0 0 0 0 0 0 0 0 0 0 0 0 0 0 0 0.13 0"/>
<feBlend mode="normal" in2="BackgroundImageFix" result="effect1_dropShadow_600_914"/>
<feBlend mode="normal" in="SourceGraphic" in2="effect1_dropShadow_600_914" result="shape"/>
</filter>
<filter id="filter22_d_600_914" x="-62" y="590" width="258" height="145" filterUnits="userSpaceOnUse" color-interpolation-filters="sRGB">
<feFlood flood-opacity="0" result="BackgroundImageFix"/>
<feColorMatrix in="SourceAlpha" type="matrix" values="0 0 0 0 0 0 0 0 0 0 0 0 0 0 0 0 0 0 127 0" result="hardAlpha"/>
<feOffset dx="16" dy="1"/>
<feGaussianBlur stdDeviation="3.5"/>
<feComposite in2="hardAlpha" operator="out"/>
<feColorMatrix type="matrix" values="0 0 0 0 0 0 0 0 0 0 0 0 0 0 0 0 0 0 0.05 0"/>
<feBlend mode="normal" in2="BackgroundImageFix" result="effect1_dropShadow_600_914"/>
<feBlend mode="normal" in="SourceGraphic" in2="effect1_dropShadow_600_914" result="shape"/>
</filter>
<filter id="filter23_d_600_914" x="1072" y="590" width="258" height="145" filterUnits="userSpaceOnUse" color-interpolation-filters="sRGB">
<feFlood flood-opacity="0" result="BackgroundImageFix"/>
<feColorMatrix in="SourceAlpha" type="matrix" values="0 0 0 0 0 0 0 0 0 0 0 0 0 0 0 0 0 0 127 0" result="hardAlpha"/>
<feOffset dx="-16" dy="1"/>
<feGaussianBlur stdDeviation="3.5"/>
<feComposite in2="hardAlpha" operator="out"/>
<feColorMatrix type="matrix" values="0 0 0 0 0 0 0 0 0 0 0 0 0 0 0 0 0 0 0.05 0"/>
<feBlend mode="normal" in2="BackgroundImageFix" result="effect1_dropShadow_600_914"/>
<feBlend mode="normal" in="SourceGraphic" in2="effect1_dropShadow_600_914" result="shape"/>
</filter>
<linearGradient id="paint0_linear_600_914" x1="498.488" y1="582" x2="498.488" y2="725" gradientUnits="userSpaceOnUse">
<stop stop-color="#A6C48A"/>
<stop offset="0.64" stop-color="#9DBA83"/>
</linearGradient>
<linearGradient id="paint1_linear_600_914" x1="495.388" y1="582" x2="495.388" y2="725" gradientUnits="userSpaceOnUse">
<stop stop-color="#A6C48A"/>
<stop offset="0.64" stop-color="#9DBA83"/>
</linearGradient>
<clipPath id="clip0_600_914">
<rect width="1280" height="822" fill="white"/>
</clipPath>
<clipPath id="clip1_600_914">
<rect width="1280" height="822" fill="white"/>
</clipPath>
<clipPath id="clip2_600_914">
<rect width="1280" height="832" fill="white"/>
</clipPath>
</defs>
</svg>
