<svg width="1280" height="822" viewBox="0 0 1280 822" fill="none" xmlns="http://www.w3.org/2000/svg">
<g clip-path="url(#clip0_600_914)">
<g clip-path="url(#clip1_600_914)">
<path d="M253.246 440.156C269.743 424.842 295.257 424.842 311.754 440.156L413.104 534.235C441.749 560.826 422.934 608.75 383.85 608.75H181.15C142.066 608.75 123.251 560.826 151.896 534.235L253.246 440.156Z" fill="#58754A"/>
<path d="M897.265 561.474C897.265 583.274 878.292 600.947 854.888 600.947C831.484 600.947 812.511 583.274 812.511 561.474C812.511 539.673 831.484 522 854.888 522C878.292 522 897.265 539.673 897.265 561.474Z" fill="#749862"/>
<path d="M951.507 572.526C951.507 594.327 932.534 612 909.13 612C885.726 612 866.753 594.327 866.753 572.526C866.753 550.726 885.726 533.053 909.13 533.053C932.534 533.053 951.507 550.726 951.507 572.526Z" fill="#749862"/>
<path d="M876.076 555.158C899.48 555.158 918.452 572.831 918.452 594.632C918.452 600.864 916.9 606.758 914.138 612H838.014C835.252 606.758 833.7 600.864 833.7 594.632C833.7 572.831 852.672 555.158 876.076 555.158Z" fill="#749862"/>
<path d="M928.624 555.158C952.028 555.158 971 572.831 971 594.632C971 600.864 969.447 606.758 966.685 612H890.561C887.8 606.758 886.247 600.864 886.247 594.632C886.247 572.831 905.22 555.158 928.624 555.158Z" fill="#749862"/>
<path d="M824.377 555.158C847.781 555.158 866.753 572.831 866.753 594.632C866.753 600.864 865.2 606.758 862.438 612H786.314C783.553 606.758 782 600.864 782 594.632C782 572.831 800.973 555.158 824.377 555.158Z" fill="#749862"/>
</g>
</g>
<defs>
<clipPath id="clip0_600_914">
<rect width="1280" height="822" fill="white"/>
</clipPath>
<clipPath id="clip1_600_914">
<rect width="1280" height="822" fill="white"/>
</clipPath>
</defs>
</svg>
