<svg width="189" height="90" viewBox="0 0 189 90" fill="none" xmlns="http://www.w3.org/2000/svg">
<path d="M115.265 39.4737C115.265 61.2744 96.2919 78.9474 72.8879 78.9474C49.4839 78.9474 30.5112 61.2744 30.5112 39.4737C30.5112 17.673 49.4839 0 72.8879 0C96.2919 0 115.265 17.673 115.265 39.4737Z" fill="#749862"/>
<path d="M169.507 50.5263C169.507 72.327 150.534 89.9999 127.13 89.9999C103.726 89.9999 84.7533 72.327 84.7533 50.5263C84.7533 28.7256 103.726 11.0526 127.13 11.0526C150.534 11.0526 169.507 28.7256 169.507 50.5263Z" fill="#749862"/>
<path d="M94.0765 33.1579C117.48 33.158 136.452 50.8309 136.452 72.6315C136.452 78.8642 134.9 84.7583 132.138 89.9997H56.014C53.2524 84.7583 51.6995 78.8642 51.6995 72.6315C51.6996 50.8308 70.6725 33.1579 94.0765 33.1579Z" fill="#749862"/>
<path d="M146.624 33.1579C170.028 33.158 189 50.8309 189 72.6315C189 78.8642 187.447 84.7583 184.685 89.9997H108.561C105.8 84.7583 104.247 78.8642 104.247 72.6315C104.247 50.8308 123.22 33.1579 146.624 33.1579Z" fill="#749862"/>
<path d="M42.377 33.1579C65.7808 33.158 84.7529 50.8309 84.7529 72.6315C84.7529 78.8642 83.2002 84.7583 80.4385 89.9997H4.31445C1.55283 84.7583 0 78.8642 0 72.6315C2.87722e-05 50.8308 18.973 33.1579 42.377 33.1579Z" fill="#749862"/>
</svg>
